<svg version="1.1" xmlns="http://www.w3.org/2000/svg" viewBox="0 0 3009.386725882665 5750.193428547689" width="3009.386725882665" height="5750.193428547689">
  <!-- svg-source:excalidraw -->
  
  <defs>
    <style>
      @font-face {
        font-family: "Virgil";
        src: url("https://excalidraw.com/Virgil.woff2");
      }
      @font-face {
        font-family: "Cascadia";
        src: url("https://excalidraw.com/Cascadia.woff2");
      }
    </style>
  </defs>
  <rect x="0" y="0" width="3009.386725882665" height="5750.193428547689" fill="#ffffff"></rect><g transform="translate(10 490.0277777777779) rotate(0 534 66)"><text x="0" y="92" font-family="Virgil, Segoe UI Emoji" font-size="103.46909465562142px" fill="#e67700" text-anchor="start" style="white-space: pre;" direction="ltr">BumbleBee Case Line</text></g><g stroke-linecap="round" transform="translate(261.655870038231 676.9659607830356) rotate(0 286.52710746485974 81.60193852853607)"><path d="M39.73 -2.44 L531.81 -3.58 L550.64 1.09 L564.47 10.57 L568.15 23.65 L571.15 29.75 L571.42 125.23 L572 138.9 L563.6 149.77 L553.54 157.13 L538.58 165.97 L530.23 166.69 L41.17 159.93 L19.47 163.78 L19.33 161.22 L8.15 149.9 L4.28 128.56 L2.54 28.38 L3.41 23.33 L11.4 11.03 L23.66 3.89 L39.25 2.95" stroke="none" stroke-width="0" fill="#82c91e"></path><path d="M40.8 0 M40.8 0 C224.34 -5.15, 405.13 -2.53, 532.25 0 M40.8 0 C223.11 3.13, 405.22 3.16, 532.25 0 M532.25 0 C559.02 3.92, 570.74 17.38, 573.05 40.8 M532.25 0 C555.41 -4.45, 574.18 11.14, 573.05 40.8 M573.05 40.8 C574.87 71.7, 574.41 100.12, 573.05 122.4 M573.05 40.8 C572.79 58.69, 576.14 72.58, 573.05 122.4 M573.05 122.4 C570.59 148.78, 556.01 161.59, 532.25 163.2 M573.05 122.4 C571.8 148.81, 562.56 165.01, 532.25 163.2 M532.25 163.2 C408.27 167.74, 284.91 167.17, 40.8 163.2 M532.25 163.2 C362.31 164.13, 190.5 163.28, 40.8 163.2 M40.8 163.2 C13.62 166.38, -0.4 150.06, 0 122.4 M40.8 163.2 C9.81 164.44, -2.71 147.62, 0 122.4 M0 122.4 C-2.44 94.94, 0.63 64.92, 0 40.8 M0 122.4 C0.2 98.14, 0.81 71.8, 0 40.8 M0 40.8 C0.95 16.31, 13.02 3.41, 40.8 0 M0 40.8 C-0.55 10.28, 16.89 1.76, 40.8 0" stroke="#000000" stroke-width="4" fill="none"></path></g><g transform="translate(266.6829775030908 715.0678993115716) rotate(0 281.5 43.5)"><text x="281.5" y="61" font-family="Virgil, Segoe UI Emoji" font-size="69.23696184409293px" fill="#000000" text-anchor="middle" style="white-space: pre;" direction="ltr"> Phishing Emails </text></g><g stroke-linecap="round"><g transform="translate(806.1512801720319 717.9526787907963) rotate(0 115.39485913894089 -0.6175552319202211)"><path d="M-1.77 0.93 C37.36 0.45, 193.44 -1.99, 232.56 -2.17" stroke="#000000" stroke-width="4.5" fill="none" stroke-dasharray="8 12"></path></g><g transform="translate(806.1512801720319 717.9526787907963) rotate(0 115.39485913894089 -0.6175552319202211)"><path d="M205.82 10.22 C211.3 8.81, 220.32 3.97, 230.22 -5.14" stroke="#000000" stroke-width="4.5" fill="none"></path></g><g transform="translate(806.1512801720319 717.9526787907963) rotate(0 115.39485913894089 -0.6175552319202211)"><path d="M205.6 -10.3 C211.23 -7.2, 220.31 -7.55, 230.22 -5.14" stroke="#000000" stroke-width="4.5" fill="none"></path></g></g><g stroke-linecap="round" transform="translate(248.15780501847325 936.0928764170836) rotate(0 300.02517248461754 88.96451944840396)"><path d="M45.66 -0.66 L553.36 -2.7 L576.61 -0.57 L585.27 12.99 L591.12 14.88 L596.46 34.47 L603.47 137.21 L598.37 150.17 L591.71 159.76 L585.11 168.35 L563.93 178.82 L555.82 176.8 L44.15 180.51 L27.8 179.14 L15.74 175.45 L5.55 160.65 L1.04 140.61 L-3.17 33.28 L9.22 16.33 L7.83 12.43 L23.69 4.61 L41.97 -1.74" stroke="none" stroke-width="0" fill="#40c057"></path><path d="M44.48 0 M44.48 0 C236.42 0.97, 425.63 -0.46, 555.57 0 M44.48 0 C198.05 2.31, 350.22 2.32, 555.57 0 M555.57 0 C586.38 2.3, 599.19 12.55, 600.05 44.48 M555.57 0 C588.84 1.99, 597.78 11.39, 600.05 44.48 M600.05 44.48 C600.14 66.73, 603.69 93.39, 600.05 133.45 M600.05 44.48 C601.23 79.08, 601.16 111.2, 600.05 133.45 M600.05 133.45 C597.2 164.99, 584.18 178.39, 555.57 177.93 M600.05 133.45 C601.75 158.71, 581.43 177.74, 555.57 177.93 M555.57 177.93 C365.33 180.33, 173.58 181.35, 44.48 177.93 M555.57 177.93 C405.37 178.26, 255.98 178.18, 44.48 177.93 M44.48 177.93 C17.53 176.54, 0.03 165.07, 0 133.45 M44.48 177.93 C16.35 177.43, -3.99 160.1, 0 133.45 M0 133.45 C-3.36 103.14, -3.17 66.27, 0 44.48 M0 133.45 C1.28 112.92, -0.3 92.91, 0 44.48 M0 44.48 C2.41 13.89, 13.82 2.51, 44.48 0 M0 44.48 C3.38 15.04, 11.44 -4.11, 44.48 0" stroke="#000000" stroke-width="4" fill="none"></path></g><g transform="translate(252.6829775030908 943.0573958654876) rotate(0 295.5 82)"><text x="295.5" y="58" font-family="Virgil, Segoe UI Emoji" font-size="65.3664955156697px" fill="#000000" text-anchor="middle" style="white-space: pre;" direction="ltr">BumbleBee Initial </text><text x="295.5" y="140" font-family="Virgil, Segoe UI Emoji" font-size="65.3664955156697px" fill="#000000" text-anchor="middle" style="white-space: pre;" direction="ltr">Execution</text></g><g stroke-linecap="round"><g transform="translate(549.4359536946895 842.4168255396478) rotate(0 -1.252976191598691 47.14149998103329)"><path d="M-3.64 1.17 C4.27 21.24, -0.06 46.36, -3.66 93.11 M-0.67 1.64 C-3.22 32.13, -0.17 64.82, 1.15 90.64" stroke="#000000" stroke-width="4" fill="none"></path></g><g transform="translate(549.4359536946895 842.4168255396478) rotate(0 -1.252976191598691 47.14149998103329)"><path d="M-14.39 64.27 C-4.33 68.89, -5.71 78.63, -2.24 92.63 M-11.41 64.74 C-8.33 72.1, -0.86 81.67, 2.57 90.16" stroke="#000000" stroke-width="4" fill="none"></path></g><g transform="translate(549.4359536946895 842.4168255396478) rotate(0 -1.252976191598691 47.14149998103329)"><path d="M6.1 63.07 C11.21 68.08, 4.87 78.11, -2.24 92.63 M9.07 63.54 C4.69 71.37, 4.71 81.38, 2.57 90.16" stroke="#000000" stroke-width="4" fill="none"></path></g></g><g stroke-linecap="round" transform="translate(237.11393363867126 1291.6895586121088) rotate(0 311.0690438644195 88.96451944840396)"><path d="M47.83 2.1 L574.66 -3.37 L597.02 6.53 L613.29 9.66 L613.13 20.04 L622.36 36.25 L618.68 131 L621.94 154.24 L616.79 160.75 L601.61 172.44 L591.47 176.69 L574.88 174.3 L43.45 175.14 L22.2 178.24 L13.94 168.12 L4.34 163.47 L-0.26 141.06 L-2.03 30.97 L5.47 17.9 L11.15 12.32 L24.81 -0.6 L44.03 2.96" stroke="none" stroke-width="0" fill="#12b886"></path><path d="M44.48 0 M44.48 0 C222.49 2.77, 403.74 2.18, 577.66 0 M44.48 0 C243.88 -2.52, 444.33 -2.94, 577.66 0 M577.66 0 C606.4 3.74, 622.43 13.03, 622.14 44.48 M577.66 0 C609.94 4.48, 623.65 18.94, 622.14 44.48 M622.14 44.48 C623.33 64.04, 620.34 83.73, 622.14 133.45 M622.14 44.48 C622.49 75.54, 623.98 105.26, 622.14 133.45 M622.14 133.45 C621.7 159.95, 608.01 174.66, 577.66 177.93 M622.14 133.45 C621.42 166.96, 605.21 174.44, 577.66 177.93 M577.66 177.93 C423.52 180.05, 268.27 178.65, 44.48 177.93 M577.66 177.93 C468.76 173.73, 358.87 174.74, 44.48 177.93 M44.48 177.93 C13.84 179.04, -0.55 164.67, 0 133.45 M44.48 177.93 C18.79 176.69, 3.5 160.56, 0 133.45 M0 133.45 C2.83 107.16, -2.93 82.77, 0 44.48 M0 133.45 C2.32 106.27, -0.39 78.14, 0 44.48 M0 44.48 C-3.75 14.62, 12.1 3.34, 44.48 0 M0 44.48 C4.06 15.11, 14.43 2.7, 44.48 0" stroke="#000000" stroke-width="4" fill="none"></path></g><g transform="translate(241.68297750309068 1320.6540780605128) rotate(0 306.49999999999994 60)"><text x="306.5" y="42" font-family="Virgil, Segoe UI Emoji" font-size="47.31204273151637px" fill="#000000" text-anchor="middle" style="white-space: pre;" direction="ltr">Meterpreter Executed on </text><text x="306.5" y="102" font-family="Virgil, Segoe UI Emoji" font-size="47.31204273151637px" fill="#000000" text-anchor="middle" style="white-space: pre;" direction="ltr">Beach Head</text></g><g stroke-linecap="round"><g transform="translate(546.2689329305362 1115.4451454332193) rotate(0 1.9140445725545874 86.37647952738547)"><path d="M2.96 1.46 C-1.06 47.73, -4.12 100.36, 4.95 169.55 M-1.13 1.47 C2.26 64.89, 2.89 130.89, 4.1 171.29" stroke="#000000" stroke-width="4" fill="none"></path></g><g transform="translate(546.2689329305362 1115.4451454332193) rotate(0 1.9140445725545874 86.37647952738547)"><path d="M-3.87 144.82 C-3.4 148.58, -4.4 158.68, 5.1 168.65 M-7.96 144.83 C-2.28 154.08, 0.97 166.01, 4.25 170.39" stroke="#000000" stroke-width="4" fill="none"></path></g><g transform="translate(546.2689329305362 1115.4451454332193) rotate(0 1.9140445725545874 86.37647952738547)"><path d="M16.64 144.32 C11.06 148.18, 4.01 158.43, 5.1 168.65 M12.55 144.33 C10.55 154.07, 6.11 166.19, 4.25 170.39" stroke="#000000" stroke-width="4" fill="none"></path></g></g><g stroke-linecap="round"><g transform="translate(552.3693749405845 1477.937985979488) rotate(0 -4.186397437493724 164.00080085252716)"><path d="M0.26 -1.05 C0.42 125.63, -2.24 250.57, -8.64 329.05 M-0.36 0.46 C-0.18 90.25, -2.39 180.73, -7.65 326.64" stroke="#000000" stroke-width="4" fill="none"></path></g><g transform="translate(552.3693749405845 1477.937985979488) rotate(0 -4.186397437493724 164.00080085252716)"><path d="M-16.58 296.6 C-14.77 311.01, -11.51 322.83, -10.74 328.16 M-17.49 298.8 C-13.01 306.5, -11.08 315.51, -9.3 324.65" stroke="#000000" stroke-width="4" fill="none"></path></g><g transform="translate(552.3693749405845 1477.937985979488) rotate(0 -4.186397437493724 164.00080085252716)"><path d="M3.93 297.28 C-2.04 311.38, -6.55 322.94, -10.74 328.16 M3.02 299.48 C1.9 307.38, -1.78 316.21, -9.3 324.65" stroke="#000000" stroke-width="4" fill="none"></path></g></g><g stroke-linecap="round" transform="translate(227.29715907884759 1812.0626512442318) rotate(0 320.88581842424327 88.96451944840396)"><path d="M41.54 2.72 L595.19 1.78 L616 1.65 L632.12 7.5 L639.44 18.53 L638.16 36.42 L640.47 134.79 L636.86 150.42 L634.69 162.79 L623.25 172.35 L604.57 174.94 L594.32 181.68 L47.68 178.62 L28.34 174.85 L14.97 170.86 L4.85 163.13 L4.07 144.13 L2.33 37.5 L10.06 19.41 L12.31 9.6 L27.12 0.47 L44.41 0.89" stroke="none" stroke-width="0" fill="#15aabf"></path><path d="M44.48 0 M44.48 0 C228.11 -2.43, 413.67 -1.39, 597.29 0 M44.48 0 C182.81 -2.67, 321.45 -1.55, 597.29 0 M597.29 0 C626.92 1.85, 638.87 11, 641.77 44.48 M597.29 0 C629.86 -3.91, 639.81 14.33, 641.77 44.48 M641.77 44.48 C643.05 73, 637.9 105.29, 641.77 133.45 M641.77 44.48 C643.92 70.46, 641.94 97.96, 641.77 133.45 M641.77 133.45 C644.9 159.83, 626.64 180.28, 597.29 177.93 M641.77 133.45 C641.09 166.92, 631.51 180.42, 597.29 177.93 M597.29 177.93 C389.64 176.67, 180.72 177.83, 44.48 177.93 M597.29 177.93 C383.47 178.88, 171.53 178.28, 44.48 177.93 M44.48 177.93 C12.03 179.62, -0.9 162.28, 0 133.45 M44.48 177.93 C14.1 181.11, -1.65 167.7, 0 133.45 M0 133.45 C2.65 106.31, -3.93 84.36, 0 44.48 M0 133.45 C0.63 101.05, 1.52 73.15, 0 44.48 M0 44.48 C0.69 16.47, 16.93 -1.46, 44.48 0 M0 44.48 C4.49 16.53, 10.91 2.14, 44.48 0" stroke="#000000" stroke-width="4" fill="none"></path></g><g transform="translate(231.6829775030909 1844.0271706926358) rotate(0 316.50000000000006 57)"><text x="316.5" y="40" font-family="Virgil, Segoe UI Emoji" font-size="44.95259810544448px" fill="#000000" text-anchor="middle" style="white-space: pre;" direction="ltr">Discovery from Meterpreter </text><text x="316.5" y="97" font-family="Virgil, Segoe UI Emoji" font-size="44.95259810544448px" fill="#000000" text-anchor="middle" style="white-space: pre;" direction="ltr">Sessions</text></g><g stroke-linecap="round" transform="translate(227.29715907884736 2365.2547081417288) rotate(0 320.8858184242434 88.96451944840396)"><path d="M43.68 -0.08 L596.29 2.86 L618.13 2.86 L629.6 9.99 L634.6 16.56 L641.11 37.59 L644.81 132.35 L635.44 151.48 L635.38 160.56 L624.67 174.43 L603.86 175.54 L594.87 181.87 L42.89 174.59 L25.37 178.17 L18.47 172.69 L8.75 162.52 L-0.7 144.24 L0.57 33.86 L3.51 20.16 L13.43 7.75 L28.35 2.16 L41.99 -2.39" stroke="none" stroke-width="0" fill="#228be6"></path><path d="M44.48 0 M44.48 0 C252.46 -4.11, 459.25 -3.95, 597.29 0 M44.48 0 C237.3 -0.02, 429.43 0.06, 597.29 0 M597.29 0 C627.54 3.24, 641.65 13.66, 641.77 44.48 M597.29 0 C630.99 -0.63, 644.69 16.71, 641.77 44.48 M641.77 44.48 C640.49 69.72, 642.87 92.61, 641.77 133.45 M641.77 44.48 C642.32 62.11, 643.27 82.03, 641.77 133.45 M641.77 133.45 C639.63 161.53, 626.22 175.06, 597.29 177.93 M641.77 133.45 C638.58 164.38, 626.57 182.31, 597.29 177.93 M597.29 177.93 C399.02 173.83, 201.66 174.2, 44.48 177.93 M597.29 177.93 C393.38 181.13, 188.01 181.91, 44.48 177.93 M44.48 177.93 C14.22 180.29, -3.72 160.49, 0 133.45 M44.48 177.93 C14.84 175.36, -1.56 163.85, 0 133.45 M0 133.45 C-1.77 114.66, 4.1 92.91, 0 44.48 M0 133.45 C2.23 102.23, -0.64 67.12, 0 44.48 M0 44.48 C-2.16 13.98, 13.9 3.5, 44.48 0 M0 44.48 C2.3 11, 12.39 -1.8, 44.48 0" stroke="#000000" stroke-width="4" fill="none"></path></g><g transform="translate(231.68297750309068 2393.2192275901334) rotate(0 316.49999999999994 61)"><text x="316.5" y="43" font-family="Virgil, Segoe UI Emoji" font-size="48.38661584942348px" fill="#000000" text-anchor="middle" style="white-space: pre;" direction="ltr">Cobalt Strike Execute on </text><text x="316.5" y="104" font-family="Virgil, Segoe UI Emoji" font-size="48.38661584942348px" fill="#000000" text-anchor="middle" style="white-space: pre;" direction="ltr">Beach Heach</text></g><g stroke-linecap="round" transform="translate(236.66328506594573 2738.969096915973) rotate(0 320.8858184242433 88.96451944840396)"><path d="M48.36 1.03 L600.08 -1.47 L616.97 5.93 L634.01 8.53 L634.46 15.22 L640.23 33.13 L645.27 135.45 L635.67 150.79 L633.95 157.02 L621.88 173.8 L609.05 179.22 L599.49 175.97 L47.33 181.21 L23.53 176.96 L20.08 172.66 L3.43 160.08 L-1.62 143.55 L4.68 33.31 L7.88 21.25 L10.96 14.09 L26.45 0.81 L45.13 2.6" stroke="none" stroke-width="0" fill="#4c6ef5"></path><path d="M44.48 0 M44.48 0 C225.09 3.47, 406.38 2.93, 597.29 0 M44.48 0 C251.96 -4.81, 459.08 -4.83, 597.29 0 M597.29 0 C626.46 -1.48, 644.29 12.54, 641.77 44.48 M597.29 0 C630.86 0.43, 644.11 16.74, 641.77 44.48 M641.77 44.48 C639.82 61.98, 640.79 79.29, 641.77 133.45 M641.77 44.48 C641.95 71.25, 638.97 97.27, 641.77 133.45 M641.77 133.45 C640.78 161.67, 628.72 180.39, 597.29 177.93 M641.77 133.45 C638.29 165.83, 623.41 175.82, 597.29 177.93 M597.29 177.93 C480.79 180.8, 359.99 181.51, 44.48 177.93 M597.29 177.93 C473.12 177.44, 348.06 177.17, 44.48 177.93 M44.48 177.93 C15.97 176.84, -2.83 166.4, 0 133.45 M44.48 177.93 C19.22 177.53, 0.9 167.33, 0 133.45 M0 133.45 C1.97 101.79, -0.47 67.63, 0 44.48 M0 133.45 C-0.75 112.36, -0.35 90.12, 0 44.48 M0 44.48 C-2.03 14.84, 17.95 -2.01, 44.48 0 M0 44.48 C0.44 16.74, 14.45 1.94, 44.48 0" stroke="#000000" stroke-width="4" fill="none"></path></g><g transform="translate(241.04910349018905 2754.9336163643775) rotate(0 316.5 73)"><text x="316.5" y="51" font-family="Virgil, Segoe UI Emoji" font-size="57.99006632335485px" fill="#000000" text-anchor="middle" style="white-space: pre;" direction="ltr">Cobalt Strike Domain </text><text x="316.5" y="124" font-family="Virgil, Segoe UI Emoji" font-size="57.99006632335485px" fill="#000000" text-anchor="middle" style="white-space: pre;" direction="ltr">Discovery</text></g><g stroke-linecap="round" transform="translate(230.419201074547 3247.8086675136183) rotate(0 320.88581842424327 88.96451944840396)"><path d="M48.3 -0.35 L598.07 3.68 L619.69 6.22 L628.9 14.63 L637.1 18.44 L641.73 32.1 L643.62 134.7 L639.14 155.41 L636.47 163.25 L622.36 171.69 L610.83 175.23 L597.67 179.59 L44.15 179.62 L23.75 177.62 L14.36 169.95 L3.68 161.94 L-2.81 146.05 L2.63 31.35 L4.95 15.12 L9.9 12.16 L24.17 2.07 L44.04 -0.63" stroke="none" stroke-width="0" fill="#7950f2"></path><path d="M44.48 0 M44.48 0 C216.55 3.55, 390.68 3.64, 597.29 0 M44.48 0 C191.05 -4.03, 337.46 -4.38, 597.29 0 M597.29 0 C626.02 -0.18, 644.05 11.41, 641.77 44.48 M597.29 0 C625.34 2.8, 640.11 17.93, 641.77 44.48 M641.77 44.48 C642.42 66.7, 640.96 90.67, 641.77 133.45 M641.77 44.48 C642.46 65.92, 643.5 88.73, 641.77 133.45 M641.77 133.45 C642.72 160.97, 624.8 179.37, 597.29 177.93 M641.77 133.45 C643.09 161.79, 630.3 174.53, 597.29 177.93 M597.29 177.93 C414.51 180.23, 233.01 180.11, 44.48 177.93 M597.29 177.93 C445.06 180.06, 293.84 179.44, 44.48 177.93 M44.48 177.93 C16.56 177.81, 1.58 159.72, 0 133.45 M44.48 177.93 C11.48 174.48, 0.97 159.25, 0 133.45 M0 133.45 C4.14 103.96, 1.88 83.32, 0 44.48 M0 133.45 C0.06 106.79, 0.91 82.25, 0 44.48 M0 44.48 C-0.78 14.84, 16.56 -0.55, 44.48 0 M0 44.48 C-3.62 14.53, 10.84 -4.22, 44.48 0" stroke="#000000" stroke-width="4" fill="none"></path></g><g transform="translate(234.80501949879033 3279.773186962022) rotate(0 316.50000000000006 57)"><text x="316.5" y="40" font-family="Virgil, Segoe UI Emoji" font-size="45.23193677907747px" fill="#000000" text-anchor="middle" style="white-space: pre;" direction="ltr">Credential Dump on Remote </text><text x="316.5" y="97" font-family="Virgil, Segoe UI Emoji" font-size="45.23193677907747px" fill="#000000" text-anchor="middle" style="white-space: pre;" direction="ltr">Host</text></g><g stroke-linecap="round" transform="translate(247.66583880880796 3623.5335955273067) rotate(0 320.8858184242434 90.5)"><path d="M46.32 3.28 L596.28 -3.49 L615.56 -0.16 L629.45 10.02 L637.63 16.9 L641.08 36.37 L641.22 132.6 L638.69 152.08 L631.74 163.23 L621.14 177.8 L618.51 175.61 L593.23 183.7 L47.54 182.58 L22.94 175.48 L13.15 173.2 L-1.14 153.74 L-1.31 147.85 L-0.32 32.29 L6.15 14.5 L20.52 3.37 L34.92 -1.42 L43.38 2.67" stroke="none" stroke-width="0" fill="#be4bdb"></path><path d="M45.25 0 M45.25 0 C160.42 3.45, 276.27 2.46, 596.52 0 M45.25 0 C263.9 3.54, 483.02 3.63, 596.52 0 M596.52 0 C629.7 1.78, 639.99 11.6, 641.77 45.25 M596.52 0 C627.25 0.32, 642.55 18.86, 641.77 45.25 M641.77 45.25 C640.94 62.16, 637.07 88.19, 641.77 135.75 M641.77 45.25 C639.67 82.77, 641.89 117.85, 641.77 135.75 M641.77 135.75 C641.61 165.28, 629.9 184.41, 596.52 181 M641.77 135.75 C640.73 165.89, 629.31 182.31, 596.52 181 M596.52 181 C480.23 180.01, 365.07 178.96, 45.25 181 M596.52 181 C390.72 180.48, 183.56 180.87, 45.25 181 M45.25 181 C11.74 177.05, 0.62 166.96, 0 135.75 M45.25 181 C12.41 181.96, -2.61 161.59, 0 135.75 M0 135.75 C2.05 110.18, -0.3 80.51, 0 45.25 M0 135.75 C0.71 113.95, -1.28 91.25, 0 45.25 M0 45.25 C3.13 18.51, 13.74 -2.23, 45.25 0 M0 45.25 C1.61 14.63, 14.48 1.55, 45.25 0" stroke="#000000" stroke-width="4" fill="none"></path></g><g transform="translate(252.0516572330513 3628.5335955273067) rotate(0 316.49999999999994 85.5)"><text x="316.5" y="40" font-family="Virgil, Segoe UI Emoji" font-size="44.94969321017488px" fill="#000000" text-anchor="middle" style="white-space: pre;" direction="ltr">Lateral Movement to Server</text><text x="316.5" y="97" font-family="Virgil, Segoe UI Emoji" font-size="44.94969321017488px" fill="#000000" text-anchor="middle" style="white-space: pre;" direction="ltr">via RDP and Anydesk </text><text x="316.5" y="154" font-family="Virgil, Segoe UI Emoji" font-size="44.94969321017488px" fill="#000000" text-anchor="middle" style="white-space: pre;" direction="ltr">Install</text></g><g stroke-linecap="round" transform="translate(251.50975145707127 3910.3071077176064) rotate(0 320.88581842424327 88.96451944840396)"><path d="M47.33 -1.1 L597.2 2.98 L616.2 5.44 L634.59 10.49 L637.55 17.25 L643.55 30.54 L641.68 132.54 L639.84 152.26 L632.97 163.34 L625.87 172.59 L609.81 180.62 L597.1 180.01 L40.81 181.18 L21.42 174.81 L15.11 174.36 L7.09 158.99 L-0.39 147.78 L4.46 33.16 L9.83 16.49 L8.02 13.42 L23.48 1.17 L45.52 -3.39" stroke="none" stroke-width="0" fill="#e64980"></path><path d="M44.48 0 M44.48 0 C175.02 1.08, 304.84 1.69, 597.29 0 M44.48 0 C162.97 -2.59, 281.48 -2.73, 597.29 0 M597.29 0 C627.25 2.4, 642.54 16.35, 641.77 44.48 M597.29 0 C622.69 -1.4, 639.7 17.26, 641.77 44.48 M641.77 44.48 C645.78 78.74, 641.48 110, 641.77 133.45 M641.77 44.48 C643.65 71.11, 642.56 97.92, 641.77 133.45 M641.77 133.45 C641.66 164.42, 625.34 179.65, 597.29 177.93 M641.77 133.45 C637.75 161.85, 630.21 180.96, 597.29 177.93 M597.29 177.93 C441.04 177.31, 286.99 174.69, 44.48 177.93 M597.29 177.93 C379.73 180.04, 160.33 180.39, 44.48 177.93 M44.48 177.93 C10.99 177.44, -3.96 160.96, 0 133.45 M44.48 177.93 C11.74 177.24, -3.63 161.79, 0 133.45 M0 133.45 C-3.96 112.77, -0.37 89.66, 0 44.48 M0 133.45 C-1.87 106.82, -1.81 80.02, 0 44.48 M0 44.48 C2.63 18.4, 14.28 -2.06, 44.48 0 M0 44.48 C-4.17 10.32, 11.79 -3.71, 44.48 0" stroke="#000000" stroke-width="4" fill="none"></path></g><g transform="translate(255.8955698813146 3943.27162716601) rotate(0 316.50000000000006 56)"><text x="316.5" y="39" font-family="Virgil, Segoe UI Emoji" font-size="44.43905546650555px" fill="#000000" text-anchor="middle" style="white-space: pre;" direction="ltr">User Added for Persistence </text><text x="316.5" y="95" font-family="Virgil, Segoe UI Emoji" font-size="44.43905546650555px" fill="#000000" text-anchor="middle" style="white-space: pre;" direction="ltr">on Server</text></g><g stroke-linecap="round" transform="translate(241.89996983641333 4208.944659322366) rotate(0 320.88581842424327 88.96451944840419)"><path d="M44.48 0.83 L594.84 -0.08 L619.14 3.99 L629.05 10.88 L634.03 16.53 L643.7 37.63 L641.22 131.39 L635.36 148.98 L632.88 157.33 L625.21 171.63 L609.17 180.02 L593.49 177.74 L46.51 180.99 L22.88 177.34 L15.79 172.29 L2.39 160.14 L3.71 146.27 L1.18 32.48 L3.56 16.68 L14.53 10.18 L24.83 4.95 L44.94 -0.22" stroke="none" stroke-width="0" fill="#fab005"></path><path d="M44.48 0 M44.48 0 C184.74 -2.14, 324.64 -3.1, 597.29 0 M44.48 0 C216.21 -2.32, 387.11 -1.32, 597.29 0 M597.29 0 C623.33 1.4, 644.29 15.27, 641.77 44.48 M597.29 0 C623.14 1.02, 640.58 13.61, 641.77 44.48 M641.77 44.48 C640.52 61.84, 642.49 85.61, 641.77 133.45 M641.77 44.48 C643.12 69.21, 644.03 90.61, 641.77 133.45 M641.77 133.45 C638.89 167.08, 624.29 181.02, 597.29 177.93 M641.77 133.45 C638.19 159.85, 623.22 180.97, 597.29 177.93 M597.29 177.93 C456.54 178.29, 319.26 177.13, 44.48 177.93 M597.29 177.93 C409.58 176.35, 221.69 175.98, 44.48 177.93 M44.48 177.93 C11.75 179.26, -3.7 167.09, 0 133.45 M44.48 177.93 C18.76 179.17, 3.66 163.5, 0 133.45 M0 133.45 C0.5 101, 2.13 76.91, 0 44.48 M0 133.45 C-0.07 111.33, 1.7 90.84, 0 44.48 M0 44.48 C1.69 14.64, 15 2.28, 44.48 0 M0 44.48 C-0.44 18.19, 14.42 -0.06, 44.48 0" stroke="#000000" stroke-width="4" fill="none"></path></g><g transform="translate(246.28578826065666 4232.90917877077) rotate(0 316.50000000000006 65)"><text x="316.5" y="46" font-family="Virgil, Segoe UI Emoji" font-size="51.46820413428274px" fill="#000000" text-anchor="middle" style="white-space: pre;" direction="ltr">ADFind.exe Executed on </text><text x="316.5" y="111" font-family="Virgil, Segoe UI Emoji" font-size="51.46820413428274px" fill="#000000" text-anchor="middle" style="white-space: pre;" direction="ltr">Beachead</text></g><g stroke-linecap="round" transform="translate(232.66900927046402 4609.223760714362) rotate(0 320.88581842424327 88.96451944840419)"><path d="M46.57 3.38 L600.62 3.36 L613.9 4.23 L631.21 8.14 L635.27 21.22 L641.06 32.22 L641.22 132.31 L638.17 152.47 L636.39 161.3 L625.21 169.59 L611.42 174.9 L597.88 175.79 L43.18 181.66 L24.33 175.14 L21.03 170.66 L5.05 157.36 L4.16 141.29 L-1.34 34.83 L8.3 20.33 L7.9 11.4 L27.43 0.23 L44.75 3.65" stroke="none" stroke-width="0" fill="#fd7e14"></path><path d="M44.48 0 M44.48 0 C247.75 1.54, 449.48 2.71, 597.29 0 M44.48 0 C251.96 1.68, 459.18 2.22, 597.29 0 M597.29 0 C629.75 0.2, 640.04 15.89, 641.77 44.48 M597.29 0 C629.62 -2.69, 646.13 15.85, 641.77 44.48 M641.77 44.48 C640.35 70.35, 641.46 93.41, 641.77 133.45 M641.77 44.48 C641.54 75.55, 640.32 109.16, 641.77 133.45 M641.77 133.45 C639.18 164.93, 629.75 179.73, 597.29 177.93 M641.77 133.45 C640.8 167.47, 628.81 177.42, 597.29 177.93 M597.29 177.93 C465.44 175.26, 334.2 173.04, 44.48 177.93 M597.29 177.93 C383.74 175.35, 170.99 176.05, 44.48 177.93 M44.48 177.93 C12.62 176.8, -0.28 166.93, 0 133.45 M44.48 177.93 C18.55 180.1, 0.86 159.34, 0 133.45 M0 133.45 C0.82 113, 4.24 93.78, 0 44.48 M0 133.45 C-2.63 109.44, 0.92 87.13, 0 44.48 M0 44.48 C2.54 17.18, 15.68 -1.41, 44.48 0 M0 44.48 C-0.8 12.7, 17.59 4.38, 44.48 0" stroke="#000000" stroke-width="4" fill="none"></path></g><g transform="translate(237.05482769470734 4641.188280162767) rotate(0 316.50000000000006 57)"><text x="316.5" y="40" font-family="Virgil, Segoe UI Emoji" font-size="45.67472819549178px" fill="#000000" text-anchor="middle" style="white-space: pre;" direction="ltr">Threat Actor Browses Files</text><text x="316.5" y="97" font-family="Virgil, Segoe UI Emoji" font-size="45.67472819549178px" fill="#000000" text-anchor="middle" style="white-space: pre;" direction="ltr">through AnyDesk Session</text></g><g stroke-linecap="round" transform="translate(221.2086681145703 5032.616763990242) rotate(0 330.70259298406717 88.96451944840419)"><path d="M47.03 2.84 L616.58 1.5 L637.32 6.51 L652.38 8.66 L658.1 13.62 L664.31 30.39 L657.87 136.85 L661.12 150.85 L654.41 161.85 L641.1 173.15 L626.44 180.32 L614.43 179.07 L42.09 176.92 L22.97 173.32 L15.82 171.96 L2.75 157.43 L3.82 147.18 L-0.17 34.7 L5.41 18.86 L10.96 11.02 L28.97 0.04 L44.98 0.14" stroke="none" stroke-width="0" fill="#fa5252"></path><path d="M44.48 0 M44.48 0 C172.22 2.5, 297.15 1.58, 616.92 0 M44.48 0 C172.08 2.06, 300.21 1.91, 616.92 0 M616.92 0 C644.89 0.2, 662.22 11.85, 661.41 44.48 M616.92 0 C647.63 -1.07, 657.47 16.86, 661.41 44.48 M661.41 44.48 C662.88 63.21, 658.37 86.77, 661.41 133.45 M661.41 44.48 C664.16 60.95, 663.23 79.78, 661.41 133.45 M661.41 133.45 C657.69 161.19, 646.53 174.48, 616.92 177.93 M661.41 133.45 C658.56 161.15, 645.5 180.81, 616.92 177.93 M616.92 177.93 C449.98 176.87, 280.11 177.75, 44.48 177.93 M616.92 177.93 C427.54 176.07, 236.82 175.36, 44.48 177.93 M44.48 177.93 C18.57 179.2, -0.55 163.48, 0 133.45 M44.48 177.93 C17.02 178.2, 0.43 161.52, 0 133.45 M0 133.45 C-4.41 103.58, -1.1 69.99, 0 44.48 M0 133.45 C-3.11 106.38, 0.5 77.96, 0 44.48 M0 44.48 C-2.99 15.47, 16.13 3.01, 44.48 0 M0 44.48 C-4.48 13.27, 15.97 -1.38, 44.48 0" stroke="#000000" stroke-width="4" fill="none"></path></g><g transform="translate(225.9112610986375 5064.581283438646) rotate(0 326.00000000000006 57)"><text x="326" y="40" font-family="Virgil, Segoe UI Emoji" font-size="45.1694448938437px" fill="#000000" text-anchor="middle" style="white-space: pre;" direction="ltr">Lateral Movement to Backup</text><text x="326" y="97" font-family="Virgil, Segoe UI Emoji" font-size="45.1694448938437px" fill="#000000" text-anchor="middle" style="white-space: pre;" direction="ltr">Server via RDP</text></g><g stroke-linecap="round" transform="translate(212.52188434054653 5437.925525909057) rotate(0 330.70259298406717 88.96451944840419)"><path d="M47.49 -2.88 L614.38 -1.9 L633.55 6.09 L649.36 9.23 L658.68 17.31 L660.96 32.54 L659.5 137.28 L661.65 155.46 L655.08 158.38 L646.53 169.27 L630.49 175.88 L615.74 176.72 L41.41 174.89 L26.22 172.45 L18.92 173.05 L6.18 156.76 L0.98 146.32 L3.04 32.56 L5.79 18.03 L7.98 14.28 L25.76 5.2 L41.41 1.07" stroke="none" stroke-width="0" fill="#fa5252"></path><path d="M44.48 0 M44.48 0 C165.6 2.54, 284.28 3.7, 616.92 0 M44.48 0 C272.11 -2.28, 499.47 -3.26, 616.92 0 M616.92 0 C645.95 -3.16, 657.95 15.95, 661.41 44.48 M616.92 0 C649.4 -2.08, 664.95 19.01, 661.41 44.48 M661.41 44.48 C658.7 79.67, 664.95 107.06, 661.41 133.45 M661.41 44.48 C659.83 76.38, 659.81 109.15, 661.41 133.45 M661.41 133.45 C662.79 165.45, 648.69 178.27, 616.92 177.93 M661.41 133.45 C659.87 164.63, 642.11 174.44, 616.92 177.93 M616.92 177.93 C474.18 176.76, 330.17 177.12, 44.48 177.93 M616.92 177.93 C480.07 178.82, 344.62 179.44, 44.48 177.93 M44.48 177.93 C17.53 176.61, -1.18 165.01, 0 133.45 M44.48 177.93 C12.95 176.59, 0.49 158.91, 0 133.45 M0 133.45 C-2.64 97.36, 3.52 63.94, 0 44.48 M0 133.45 C2.19 96.73, 1.85 63.16, 0 44.48 M0 44.48 C1.3 15.87, 15.48 2.69, 44.48 0 M0 44.48 C-0.9 19.03, 15.88 -3.27, 44.48 0" stroke="#000000" stroke-width="4" fill="none"></path></g><g transform="translate(217.22447732461376 5469.890045357461) rotate(0 326.00000000000006 57)"><text x="326" y="40" font-family="Virgil, Segoe UI Emoji" font-size="45.35067828209858px" fill="#000000" text-anchor="middle" style="white-space: pre;" direction="ltr">Network Discovery from First</text><text x="326" y="97" font-family="Virgil, Segoe UI Emoji" font-size="45.35067828209858px" fill="#000000" text-anchor="middle" style="white-space: pre;" direction="ltr">Pivot Server</text></g><g transform="translate(1043.7198154813582 707.6157661619202) rotate(0 551.5 21)"><text x="0" y="33" font-family="Helvetica, Segoe UI Emoji" font-size="36px" fill="#000000" text-anchor="start" style="white-space: pre;" direction="ltr">The phishing mail has been sent to the target with the following tools.</text></g><g stroke-linecap="round"><g transform="translate(1052.6524294704095 755.1235353611403) rotate(0 79.3931791701749 26.978836066440863)"><path d="M-2.23 -2.42 C2.82 6.33, 0.38 41.4, 27.58 50.99 C54.79 60.58, 139.32 54.28, 161.02 55.12" stroke="#c92a2a" stroke-width="4.5" fill="none" stroke-dasharray="8 12"></path></g><g transform="translate(1052.6524294704095 755.1235353611403) rotate(0 79.3931791701749 26.978836066440863)"><path d="M129.54 63.57 C136.73 64.85, 142.91 58.02, 160.69 55.28" stroke="#c92a2a" stroke-width="4.5" fill="none"></path></g><g transform="translate(1052.6524294704095 755.1235353611403) rotate(0 79.3931791701749 26.978836066440863)"><path d="M129.19 43.05 C136.24 48.5, 142.48 45.83, 160.69 55.28" stroke="#c92a2a" stroke-width="4.5" fill="none"></path></g></g><g transform="translate(1224.8761465677353 784.9137183346403) rotate(0 419.5 17)"><text x="0" y="27" font-family="Cascadia, Segoe UI Emoji" font-size="28px" fill="#c92a2a" text-anchor="start" style="white-space: pre;" direction="ltr">"TransferNow, TransferXL, WeTransfer veya OneDrive"</text></g><g transform="translate(1043.7198154813582 939.2501771778383) rotate(0 262 21)"><text x="262" y="33" font-family="Helvetica, Segoe UI Emoji" font-size="36px" fill="#000000" text-anchor="middle" style="white-space: pre;" direction="ltr">ISO Mounted and LNK Executed</text></g><g transform="translate(1224.8761465677353 1024.0571633633167) rotate(0 518 34)"><text x="0" y="27" font-family="Cascadia, Segoe UI Emoji" font-size="28px" fill="#c92a2a" text-anchor="start" style="white-space: pre;" direction="ltr">Events:</text><text x="0" y="61" font-family="Cascadia, Segoe UI Emoji" font-size="28px" fill="#c92a2a" text-anchor="start" style="white-space: pre;" direction="ltr">    *`C:\Windows\System32\rundll32.exe tamirlan.dll,EdHVntqdWt`</text></g><g transform="translate(1224.8761465677353 1110.688744290061) rotate(0 634 70)"><text x="0" y="28" font-family="Cascadia, Segoe UI Emoji" font-size="28.82815167698544px" fill="#c92a2a" text-anchor="start" style="white-space: pre;" direction="ltr">Detection:</text><text x="0" y="63" font-family="Cascadia, Segoe UI Emoji" font-size="28.82815167698544px" fill="#c92a2a" text-anchor="start" style="white-space: pre;" direction="ltr">    * `pproc_path`: `C:\Windows\Explorer.exe`</text><text x="0" y="98" font-family="Cascadia, Segoe UI Emoji" font-size="28.82815167698544px" fill="#c92a2a" text-anchor="start" style="white-space: pre;" direction="ltr">    * `command`: `C:\Windows\System32\rundll32.exe tamirlan.dll,EdHVntqdWt`</text><text x="0" y="133" font-family="Cascadia, Segoe UI Emoji" font-size="28.82815167698544px" fill="#c92a2a" text-anchor="start" style="white-space: pre;" direction="ltr">    * `sproc`: `rundll32.exe`</text></g><g stroke-linecap="round"><g transform="translate(1052.9924245700918 976.6753874274518) rotate(0 81.0075769539335 38.37590272164499)"><path d="M0.07 0.62 C3.24 12.36, -10.41 56.44, 16.68 68.83 C43.78 81.22, 137.82 73.83, 162.65 74.98" stroke="#c92a2a" stroke-width="4.5" fill="none" stroke-dasharray="8 12"></path></g><g transform="translate(1052.9924245700918 976.6753874274518) rotate(0 81.0075769539335 38.37590272164499)"><path d="M135.48 81.97 C143.71 81.74, 149.65 83.75, 166.47 75.65" stroke="#c92a2a" stroke-width="4.5" fill="none"></path></g><g transform="translate(1052.9924245700918 976.6753874274518) rotate(0 81.0075769539335 38.37590272164499)"><path d="M135.2 61.46 C143.25 65.66, 149.26 72.1, 166.47 75.65" stroke="#c92a2a" stroke-width="4.5" fill="none"></path></g></g><g stroke-linecap="round"><g transform="translate(810.0905601012719 961.5152742143279) rotate(0 118.58236201147838 3.7319584227418545)"><path d="M0.5 1.86 C40.31 2.51, 198.16 5.04, 236.67 5.61" stroke="#000000" stroke-width="4.5" fill="none" stroke-dasharray="8 12"></path></g><g transform="translate(810.0905601012719 961.5152742143279) rotate(0 118.58236201147838 3.7319584227418545)"><path d="M210.97 19.27 C212.1 9.65, 217.85 11.32, 235.8 5.64" stroke="#000000" stroke-width="4.5" fill="none"></path></g><g transform="translate(810.0905601012719 961.5152742143279) rotate(0 118.58236201147838 3.7319584227418545)"><path d="M211.29 -1.25 C212.6 -6.32, 218.28 -0.1, 235.8 5.64" stroke="#000000" stroke-width="4.5" fill="none"></path></g></g><g transform="translate(1043.7198154813582 1294.6398441730446) rotate(0 789.5 63)"><text x="0" y="33" font-family="Helvetica, Segoe UI Emoji" font-size="36px" fill="#000000" text-anchor="start" style="white-space: pre;" direction="ltr">In this intrusion, an instance of the BumbleBee process</text><text x="0" y="75" font-family="Helvetica, Segoe UI Emoji" font-size="36px" fill="#000000" text-anchor="start" style="white-space: pre;" direction="ltr">C:\Program Files\Windows Photo Viewer\ImagingDevices.exe was created and accessed by .</text><text x="0" y="117" font-family="Helvetica, Segoe UI Emoji" font-size="36px" fill="#000000" text-anchor="start" style="white-space: pre;" direction="ltr">rundll32.exe Shortly after this interaction, the process began communicating with a Meterpreter C2 </text></g><g stroke-linecap="round"><g transform="translate(839.4493132614925 1326.243090291414) rotate(0 88.83445154718913 -2.3670848532755144)"><path d="M-1.76 -0.15 C27.81 -1.06, 149.4 -3.51, 179.43 -4.59" stroke="#000000" stroke-width="4.5" fill="none" stroke-dasharray="8 12"></path></g><g transform="translate(839.4493132614925 1326.243090291414) rotate(0 88.83445154718913 -2.3670848532755144)"><path d="M151.31 7.98 C164.46 2.72, 171.95 -2.18, 178.42 -3.47" stroke="#000000" stroke-width="4.5" fill="none"></path></g><g transform="translate(839.4493132614925 1326.243090291414) rotate(0 88.83445154718913 -2.3670848532755144)"><path d="M150.76 -12.53 C164.25 -10.14, 171.94 -7.39, 178.42 -3.47" stroke="#000000" stroke-width="4.5" fill="none"></path></g></g><g transform="translate(1224.8761465677353 1460.73528005606) rotate(0 526 68)"><text x="0" y="27" font-family="Cascadia, Segoe UI Emoji" font-size="28px" fill="#c92a2a" text-anchor="start" style="white-space: pre;" direction="ltr">Events:</text><text x="0" y="61" font-family="Cascadia, Segoe UI Emoji" font-size="28px" fill="#c92a2a" text-anchor="start" style="white-space: pre;" direction="ltr">    * `C:\Program Files\Windows Mail\wabmig.exe`</text><text x="0" y="95" font-family="Cascadia, Segoe UI Emoji" font-size="28px" fill="#c92a2a" text-anchor="start" style="white-space: pre;" direction="ltr">    * `C:\Program Files\Windows Mail\wab.exe`</text><text x="0" y="129" font-family="Cascadia, Segoe UI Emoji" font-size="28px" fill="#c92a2a" text-anchor="start" style="white-space: pre;" direction="ltr">    * `C:\Program Files\Windows Photo Viewer\ImagingDevices.exe`</text></g><g transform="translate(1236.4688042126704 1615.057971561481) rotate(0 735 140)"><text x="0" y="28" font-family="Cascadia, Segoe UI Emoji" font-size="28.82815167698544px" fill="#c92a2a" text-anchor="start" style="white-space: pre;" direction="ltr">Detection:</text><text x="0" y="63" font-family="Cascadia, Segoe UI Emoji" font-size="28.82815167698544px" fill="#c92a2a" text-anchor="start" style="white-space: pre;" direction="ltr">    * `ParentCommandLine:` `C:\Windows\system32\wbem\wmiprvse.exe -secured -Embedding` </text><text x="0" y="98" font-family="Cascadia, Segoe UI Emoji" font-size="28.82815167698544px" fill="#c92a2a" text-anchor="start" style="white-space: pre;" direction="ltr">    * `sproc:` `ImagingDevices.exe`, `wabmig.exe`</text><text x="0" y="133" font-family="Cascadia, Segoe UI Emoji" font-size="28.82815167698544px" fill="#c92a2a" text-anchor="start" style="white-space: pre;" direction="ltr">    * `pproc:` `WmiPrvSE.exe`</text><text x="0" y="168" font-family="Cascadia, Segoe UI Emoji" font-size="28.82815167698544px" fill="#c92a2a" text-anchor="start" style="white-space: pre;" direction="ltr">    * `command:` `C:\Program Files\Windows Mail\wabmig.exe`, </text><text x="0" y="203" font-family="Cascadia, Segoe UI Emoji" font-size="28.82815167698544px" fill="#c92a2a" text-anchor="start" style="white-space: pre;" direction="ltr">                 `C:\Program Files\Windows Photo Viewer\ImagingDevices.exe`,</text><text x="0" y="238" font-family="Cascadia, Segoe UI Emoji" font-size="28.82815167698544px" fill="#c92a2a" text-anchor="start" style="white-space: pre;" direction="ltr">                 `C:\Program Files\Windows Mail\wab.exe` </text><text x="0" y="273" font-family="Cascadia, Segoe UI Emoji" font-size="28.82815167698544px" fill="#c92a2a" text-anchor="start" style="white-space: pre;" direction="ltr"></text></g><g stroke-linecap="round"><g transform="translate(1055.7923384688359 1434.0944330190541) rotate(0 75.86421099963627 39.01242709090502)"><path d="M-0.13 -0.36 C0.29 11.32, -21.5 56.03, 5.17 69.16 C31.83 82.28, 134.05 77.14, 159.85 78.38" stroke="#c92a2a" stroke-width="4.5" fill="none" stroke-dasharray="8 12"></path></g><g transform="translate(1055.7923384688359 1434.0944330190541) rotate(0 75.86421099963627 39.01242709090502)"><path d="M131.13 84.86 C146.26 83.02, 152.77 79.12, 156.04 80.59" stroke="#c92a2a" stroke-width="4.5" fill="none"></path></g><g transform="translate(1055.7923384688359 1434.0944330190541) rotate(0 75.86421099963627 39.01242709090502)"><path d="M131.16 64.33 C146.15 70.62, 152.65 74.85, 156.04 80.59" stroke="#c92a2a" stroke-width="4.5" fill="none"></path></g></g><g transform="translate(1225.386725882665 2201.6320012376154) rotate(0 887 87.5)"><text x="0" y="28" font-family="Cascadia, Segoe UI Emoji" font-size="28.82815167698544px" fill="#c92a2a" text-anchor="start" style="white-space: pre;" direction="ltr">Detection:</text><text x="0" y="63" font-family="Cascadia, Segoe UI Emoji" font-size="28.82815167698544px" fill="#c92a2a" text-anchor="start" style="white-space: pre;" direction="ltr">    * `pproc_path`: `C:\Program Files\Windows Mail\wabmig.exe`</text><text x="0" y="98" font-family="Cascadia, Segoe UI Emoji" font-size="28.82815167698544px" fill="#c92a2a" text-anchor="start" style="white-space: pre;" direction="ltr">    * `sproc`: `nltest.exe`, `net.exe`, `arp.exe`, `nbstat.exe`</text><text x="0" y="133" font-family="Cascadia, Segoe UI Emoji" font-size="28.82815167698544px" fill="#c92a2a" text-anchor="start" style="white-space: pre;" direction="ltr">    * `command`: `C:\Windows\system32\cmd.exe /C ipconfig /all`, `-a`,`-n`, `/dclist`, `group`, `/domain`</text><text x="0" y="168" font-family="Cascadia, Segoe UI Emoji" font-size="28.82815167698544px" fill="#c92a2a" text-anchor="start" style="white-space: pre;" direction="ltr"></text></g><g transform="translate(1224.8761465677353 1979.018230463835) rotate(0 361.5 102)"><text x="0" y="27" font-family="Cascadia, Segoe UI Emoji" font-size="28px" fill="#c92a2a" text-anchor="start" style="white-space: pre;" direction="ltr">Events:</text><text x="0" y="61" font-family="Cascadia, Segoe UI Emoji" font-size="28px" fill="#c92a2a" text-anchor="start" style="white-space: pre;" direction="ltr">    * `nltest /dclist:`</text><text x="0" y="95" font-family="Cascadia, Segoe UI Emoji" font-size="28px" fill="#c92a2a" text-anchor="start" style="white-space: pre;" direction="ltr">    * `net group "domain computers" /domain`</text><text x="0" y="129" font-family="Cascadia, Segoe UI Emoji" font-size="28px" fill="#c92a2a" text-anchor="start" style="white-space: pre;" direction="ltr">    * `nltest /dclist:[REDACTED]`</text><text x="0" y="163" font-family="Cascadia, Segoe UI Emoji" font-size="28px" fill="#c92a2a" text-anchor="start" style="white-space: pre;" direction="ltr">    * `arp -a`</text><text x="0" y="197" font-family="Cascadia, Segoe UI Emoji" font-size="28px" fill="#c92a2a" text-anchor="start" style="white-space: pre;" direction="ltr">    * `nbstat -n`</text></g><g stroke-linecap="round"><g transform="translate(1055.0589998361716 1969.630853542512) rotate(0 66.50446522115124 31.538793117914793)"><path d="M-2.68 -1.59 C-1.74 7.77, -18.22 46.45, 5.62 57.48 C29.46 68.51, 118.07 63.17, 140.37 64.58" stroke="#c92a2a" stroke-width="4.5" fill="none" stroke-dasharray="8 12"></path></g><g transform="translate(1055.0589998361716 1969.630853542512) rotate(0 66.50446522115124 31.538793117914793)"><path d="M109.89 72.47 C124.2 70.23, 130.25 65.82, 143.61 66.34" stroke="#c92a2a" stroke-width="4.5" fill="none"></path></g><g transform="translate(1055.0589998361716 1969.630853542512) rotate(0 66.50446522115124 31.538793117914793)"><path d="M109.93 51.95 C124.42 55.84, 130.46 57.56, 143.61 66.34" stroke="#c92a2a" stroke-width="4.5" fill="none"></path></g></g><g stroke-linecap="round"><g transform="translate(868.0734728610196 1875.1586759770214) rotate(0 82.3875809630789 -1.4247961557638291)"><path d="M-1.87 -2.31 C25.82 -2.26, 138.97 -0.78, 166.64 -0.54" stroke="#000000" stroke-width="4.5" fill="none" stroke-dasharray="8 12"></path></g><g transform="translate(868.0734728610196 1875.1586759770214) rotate(0 82.3875809630789 -1.4247961557638291)"><path d="M135.05 10.28 C144.34 3.94, 152.87 5.41, 168.87 1.16" stroke="#000000" stroke-width="4.5" fill="none"></path></g><g transform="translate(868.0734728610196 1875.1586759770214) rotate(0 82.3875809630789 -1.4247961557638291)"><path d="M135.27 -10.24 C144.37 -10.05, 152.83 -2.06, 168.87 1.16" stroke="#000000" stroke-width="4.5" fill="none"></path></g></g><g stroke-linecap="round"><g transform="translate(545.6596310896095 2005.151164483697) rotate(0 2.523346413481306 170.7888837510401)"><path d="M1.04 -1.84 C2.37 98.13, 2.17 191.62, 5.26 343.42 M-0.22 -0.49 C1.21 84.72, 2.24 171.01, 3.58 340.59" stroke="#000000" stroke-width="4" fill="none"></path></g><g transform="translate(545.6596310896095 2005.151164483697) rotate(0 2.523346413481306 170.7888837510401)"><path d="M-5.35 309.72 C-3 324.01, -2.34 328.58, 4.45 343.22 M-7.25 311.75 C-5.22 318.17, -2.8 326.32, 1.92 338.96" stroke="#000000" stroke-width="4" fill="none"></path></g><g transform="translate(545.6596310896095 2005.151164483697) rotate(0 2.523346413481306 170.7888837510401)"><path d="M15.17 309.54 C11.77 323.99, 6.69 328.62, 4.45 343.22 M13.27 311.58 C10.16 318.36, 7.44 326.55, 1.92 338.96" stroke="#000000" stroke-width="4" fill="none"></path></g></g><g transform="translate(1045.08522728193 2393.747987412068) rotate(0 550.0000000000001 21)"><text x="0" y="33" font-family="Helvetica, Segoe UI Emoji" font-size="36px" fill="#000000" text-anchor="start" style="white-space: pre;" direction="ltr">The Meterpreter server was used to host the Cobalt Strike C2 server.</text></g><g transform="translate(1349.4838028033685 2907.905798355453) rotate(0 427.4999999999999 85)"><text x="0" y="27" font-family="Cascadia, Segoe UI Emoji" font-size="28px" fill="#c92a2a" text-anchor="start" style="white-space: pre;" direction="ltr">Events:</text><text x="0" y="61" font-family="Cascadia, Segoe UI Emoji" font-size="28px" fill="#c92a2a" text-anchor="start" style="white-space: pre;" direction="ltr">    * `cmd.exe /C nltest /domain_trusts`</text><text x="0" y="95" font-family="Cascadia, Segoe UI Emoji" font-size="28px" fill="#c92a2a" text-anchor="start" style="white-space: pre;" direction="ltr">    * `cmd.exe /C net group "domain admins" /domain`</text><text x="0" y="129" font-family="Cascadia, Segoe UI Emoji" font-size="28px" fill="#c92a2a" text-anchor="start" style="white-space: pre;" direction="ltr">    * `cmd.exe /C net user [REDACTED] /dom`</text><text x="0" y="163" font-family="Cascadia, Segoe UI Emoji" font-size="28px" fill="#c92a2a" text-anchor="start" style="white-space: pre;" direction="ltr">    * `cmd.exe /C net group "Domain computers" /dom`</text></g><g transform="translate(1346.150469470035 3108.6298244975496) rotate(0 667.5000000000001 70)"><text x="0" y="28" font-family="Cascadia, Segoe UI Emoji" font-size="28.82815167698544px" fill="#c92a2a" text-anchor="start" style="white-space: pre;" direction="ltr">Detection:</text><text x="0" y="63" font-family="Cascadia, Segoe UI Emoji" font-size="28.82815167698544px" fill="#c92a2a" text-anchor="start" style="white-space: pre;" direction="ltr">    *  `sproc:` `nltest.exe`,`net.exe`</text><text x="0" y="98" font-family="Cascadia, Segoe UI Emoji" font-size="28.82815167698544px" fill="#c92a2a" text-anchor="start" style="white-space: pre;" direction="ltr">    *  `command:` `/domain_trust`, `/dclist`, `group`, `/domain`, `/dom`,`user`</text><text x="0" y="133" font-family="Cascadia, Segoe UI Emoji" font-size="28.82815167698544px" fill="#c92a2a" text-anchor="start" style="white-space: pre;" direction="ltr"></text></g><g stroke-linecap="round"><g transform="translate(862.9711175225993 2405.3513096896713) rotate(0 86.8227485680319 -2.0015351042034126)"><path d="M1.36 -1.63 C30.27 -1.86, 143.85 -1.73, 172.28 -2.37" stroke="#000000" stroke-width="4.5" fill="none" stroke-dasharray="8 12"></path></g><g transform="translate(862.9711175225993 2405.3513096896713) rotate(0 86.8227485680319 -2.0015351042034126)"><path d="M141.85 9.02 C152.82 5.52, 155.61 5, 172.27 -1.42" stroke="#000000" stroke-width="4.5" fill="none"></path></g><g transform="translate(862.9711175225993 2405.3513096896713) rotate(0 86.8227485680319 -2.0015351042034126)"><path d="M141.67 -11.5 C152.53 -9.69, 155.38 -4.9, 172.27 -1.42" stroke="#000000" stroke-width="4.5" fill="none"></path></g></g><g stroke-linecap="round"><g transform="translate(555.9829281153034 2558.2915510107596) rotate(0 -1.3001726745504811 84.68836291489083)"><path d="M-1.61 -0.69 C-4.08 55.37, -2.26 114.01, -3.73 170.07 M1.13 1.12 C0.01 58.04, -2.38 115.55, -2.24 168.7" stroke="#000000" stroke-width="4" fill="none"></path></g><g transform="translate(555.9829281153034 2558.2915510107596) rotate(0 -1.3001726745504811 84.68836291489083)"><path d="M-13.84 139.73 C-10.92 150.1, -4.92 162.98, -3.23 171.05 M-11.11 141.54 C-8.17 150.27, -6.17 159.81, -1.75 169.68" stroke="#000000" stroke-width="4" fill="none"></path></g><g transform="translate(555.9829281153034 2558.2915510107596) rotate(0 -1.3001726745504811 84.68836291489083)"><path d="M6.68 139.92 C2.87 150.11, 2.14 162.93, -3.23 171.05 M9.41 141.73 C5.29 150.74, 0.23 160.21, -1.75 169.68" stroke="#000000" stroke-width="4" fill="none"></path></g></g><g stroke-linecap="round"><g transform="translate(867.4323261015334 2814.557550432093) rotate(0 184.39234044076886 1.860475251285152)"><path d="M-2.1 1.32 C59.4 1.31, 309.15 2.36, 370.89 2.4" stroke="#000000" stroke-width="4.5" fill="none" stroke-dasharray="8 12"></path></g><g transform="translate(867.4323261015334 2814.557550432093) rotate(0 184.39234044076886 1.860475251285152)"><path d="M344.56 12.75 C351.78 5.75, 360.91 5.57, 368.05 0.67" stroke="#000000" stroke-width="4.5" fill="none"></path></g><g transform="translate(867.4323261015334 2814.557550432093) rotate(0 184.39234044076886 1.860475251285152)"><path d="M344.61 -7.78 C352.18 -7.24, 361.29 0.1, 368.05 0.67" stroke="#000000" stroke-width="4.5" fill="none"></path></g></g><g transform="translate(1250.4088221434508 2804.350800131685) rotate(0 231 21)"><text x="0" y="33" font-family="Helvetica, Segoe UI Emoji" font-size="36px" fill="#000000" text-anchor="start" style="white-space: pre;" direction="ltr">Typical discovery commands</text></g><g transform="translate(1268.2094799010683 2467.5837510154724) rotate(0 394.5 51)"><text x="0" y="27" font-family="Cascadia, Segoe UI Emoji" font-size="28px" fill="#c92a2a" text-anchor="start" style="white-space: pre;" direction="ltr">Events:</text><text x="0" y="61" font-family="Cascadia, Segoe UI Emoji" font-size="28px" fill="#c92a2a" text-anchor="start" style="white-space: pre;" direction="ltr">    * `C:\Program Files\Windows Mail\wabmig.exe`</text><text x="0" y="95" font-family="Cascadia, Segoe UI Emoji" font-size="28px" fill="#c92a2a" text-anchor="start" style="white-space: pre;" direction="ltr">    </text></g><g transform="translate(1268.2094799010683 2550.291518352332) rotate(0 507 52.5)"><text x="0" y="28" font-family="Cascadia, Segoe UI Emoji" font-size="28.82815167698544px" fill="#c92a2a" text-anchor="start" style="white-space: pre;" direction="ltr">Detection 1:</text><text x="0" y="63" font-family="Cascadia, Segoe UI Emoji" font-size="28.82815167698544px" fill="#c92a2a" text-anchor="start" style="white-space: pre;" direction="ltr">    *  `command:` `C:\Program Files\Windows Mail\wabmig.exe`</text><text x="0" y="98" font-family="Cascadia, Segoe UI Emoji" font-size="28.82815167698544px" fill="#c92a2a" text-anchor="start" style="white-space: pre;" direction="ltr">    </text></g><g transform="translate(1043.7198154813582 1867.3146980870629) rotate(0 869.5 42)"><text x="0" y="33" font-family="Helvetica, Segoe UI Emoji" font-size="36px" fill="#000000" text-anchor="start" style="white-space: pre;" direction="ltr">The first discovery stage includes TTPs that we have seen in multiple</text><text x="0" y="75" font-family="Helvetica, Segoe UI Emoji" font-size="36px" fill="#000000" text-anchor="start" style="white-space: pre;" direction="ltr">cases, such as trusts discovery, domain admin group discovery, network discovery and process enumeration.</text></g><g stroke-linecap="round"><g transform="translate(541.1316862216947 2926.3556314387642) rotate(0 2.433664134530545 152.1673820775959)"><path d="M2.02 -2.67 C3.53 100.02, 6.48 207.81, 2.11 307 M0.47 1.3 C3.88 105.42, 3.09 210.63, 2.45 304.87" stroke="#000000" stroke-width="4" fill="none"></path></g><g transform="translate(541.1316862216947 2926.3556314387642) rotate(0 2.433664134530545 152.1673820775959)"><path d="M-4.87 272.95 C-5.26 282.89, 1.44 299.71, 3.08 308.27 M-7.01 278.41 C-3.67 286.86, -2.05 296.68, 3.54 305.34" stroke="#000000" stroke-width="4" fill="none"></path></g><g transform="translate(541.1316862216947 2926.3556314387642) rotate(0 2.433664134530545 152.1673820775959)"><path d="M15.65 273.07 C8.35 282.62, 8.14 299.4, 3.08 308.27 M13.51 278.53 C9.76 286.61, 4.3 296.39, 3.54 305.34" stroke="#000000" stroke-width="4" fill="none"></path></g></g><g stroke-linecap="round"><g transform="translate(888.3646936612117 3288.4018509376056) rotate(0 90.3934633701898 1.470752256311016)"><path d="M-0.37 0.88 C29.38 0.87, 150.95 1.12, 181.15 2.06" stroke="#000000" stroke-width="4.5" fill="none" stroke-dasharray="8 12"></path></g><g transform="translate(888.3646936612117 3288.4018509376056) rotate(0 90.3934633701898 1.470752256311016)"><path d="M154.07 9.66 C160.65 5.38, 178.28 5.86, 179.93 1.48" stroke="#000000" stroke-width="4.5" fill="none"></path></g><g transform="translate(888.3646936612117 3288.4018509376056) rotate(0 90.3934633701898 1.470752256311016)"><path d="M154.37 -10.86 C161.13 -7.03, 178.65 1.55, 179.93 1.48" stroke="#000000" stroke-width="4.5" fill="none"></path></g></g><g transform="translate(1249.0488324524601 3406.748166312561) rotate(0 641.0000000000001 51)"><text x="0" y="27" font-family="Cascadia, Segoe UI Emoji" font-size="28px" fill="#c92a2a" text-anchor="start" style="white-space: pre;" direction="ltr">Events:</text><text x="0" y="61" font-family="Cascadia, Segoe UI Emoji" font-size="28px" fill="#c92a2a" text-anchor="start" style="white-space: pre;" direction="ltr">    * `procdump64.exe -accepteula -ma lsass.exe C:\programdata\lsass.dmp`</text><text x="0" y="95" font-family="Cascadia, Segoe UI Emoji" font-size="28px" fill="#c92a2a" text-anchor="start" style="white-space: pre;" direction="ltr">    * `7za.exe a -tzip -mx5 C:\programdata\lsass.zip C:\programdata\lsass.dmp`</text></g><g transform="translate(1251.428067328193 3519.4405020525637) rotate(0 473.9999999999999 52.5)"><text x="0" y="28" font-family="Cascadia, Segoe UI Emoji" font-size="28.82815167698544px" fill="#c92a2a" text-anchor="start" style="white-space: pre;" direction="ltr">Detection:</text><text x="0" y="63" font-family="Cascadia, Segoe UI Emoji" font-size="28.82815167698544px" fill="#c92a2a" text-anchor="start" style="white-space: pre;" direction="ltr">    *  `sproc:` `procdump64.exe`,`7za.exe`</text><text x="0" y="98" font-family="Cascadia, Segoe UI Emoji" font-size="28.82815167698544px" fill="#c92a2a" text-anchor="start" style="white-space: pre;" direction="ltr">    *  `command|contains:` ` -ma`, ` /ma`, ` ls`, `.dmp`</text></g><g transform="translate(1080.1897623288492 3234.4304106626796) rotate(0 639 63)"><text x="0" y="33" font-family="Helvetica, Segoe UI Emoji" font-size="36px" fill="#000000" text-anchor="start" style="white-space: pre;" direction="ltr">A remote service was created on one of the workstations in order to dump lsass.</text><text x="0" y="75" font-family="Helvetica, Segoe UI Emoji" font-size="36px" fill="#000000" text-anchor="start" style="white-space: pre;" direction="ltr">Procdump copied to \\WORKSTATION\C$\ProgramData\procdump64.exe</text><text x="0" y="117" font-family="Helvetica, Segoe UI Emoji" font-size="36px" fill="#000000" text-anchor="start" style="white-space: pre;" direction="ltr">Procdump executed via remote service creaton</text></g><g transform="translate(1255.240249943829 2652.876431402412) rotate(0 726.5 70)"><text x="0" y="28" font-family="Cascadia, Segoe UI Emoji" font-size="28.82815167698544px" fill="#c92a2a" text-anchor="start" style="white-space: pre;" direction="ltr">Detection 2:</text><text x="0" y="63" font-family="Cascadia, Segoe UI Emoji" font-size="28.82815167698544px" fill="#c92a2a" text-anchor="start" style="white-space: pre;" direction="ltr">        *   `PipeName|contains|all:` `\MSSE-`,`-server`</text><text x="0" y="98" font-family="Cascadia, Segoe UI Emoji" font-size="28.82815167698544px" fill="#c92a2a" text-anchor="start" style="white-space: pre;" direction="ltr">        *   `PipeName|startswith:` `\postex_`, `\postex_ssh_`, `\status_`, `\msagent_`</text><text x="0" y="133" font-family="Cascadia, Segoe UI Emoji" font-size="28.82815167698544px" fill="#c92a2a" text-anchor="start" style="white-space: pre;" direction="ltr">    </text></g><g stroke-linecap="round"><g transform="translate(544.1411896856795 3443.804032687418) rotate(0 2.261310658753871 82.06000306763121)"><path d="M-0.83 -0.16 C-1 48.1, 2.14 88.14, 2.34 165.7 M-0.66 -1.58 C-1.93 51.57, -0.3 104.26, 5.59 165.22" stroke="#000000" stroke-width="4" fill="none"></path></g><g transform="translate(544.1411896856795 3443.804032687418) rotate(0 2.261310658753871 82.06000306763121)"><path d="M-7.7 137.77 C-3.92 147.92, 1.62 149.83, 4.26 164.2 M-7.52 136.35 C-4.98 146.46, -0.63 156.15, 7.51 163.72" stroke="#000000" stroke-width="4" fill="none"></path></g><g transform="translate(544.1411896856795 3443.804032687418) rotate(0 2.261310658753871 82.06000306763121)"><path d="M12.76 136.15 C10.92 146.7, 10.87 149.05, 4.26 164.2 M12.93 134.73 C9.16 145.44, 7.2 155.63, 7.51 163.72" stroke="#000000" stroke-width="4" fill="none"></path></g></g><g transform="translate(1070.4963599827988 3647.755697492309) rotate(0 914 42)"><text x="0" y="33" font-family="Helvetica, Segoe UI Emoji" font-size="36px" fill="#000000" text-anchor="start" style="white-space: pre;" direction="ltr">AnyDesk was installed to facilitate interactive desktop command and control access to a server in the environment.</text><text x="0" y="75" font-family="Helvetica, Segoe UI Emoji" font-size="36px" fill="#000000" text-anchor="start" style="white-space: pre;" direction="ltr"></text></g><g transform="translate(1166.1292308663674 3740.5127893317995) rotate(0 305 52.5)"><text x="0" y="28" font-family="Cascadia, Segoe UI Emoji" font-size="28.82815167698544px" fill="#c92a2a" text-anchor="start" style="white-space: pre;" direction="ltr">Detection:</text><text x="0" y="63" font-family="Cascadia, Segoe UI Emoji" font-size="28.82815167698544px" fill="#c92a2a" text-anchor="start" style="white-space: pre;" direction="ltr">    *  `catid`:`115101223101`</text><text x="0" y="98" font-family="Cascadia, Segoe UI Emoji" font-size="28.82815167698544px" fill="#c92a2a" text-anchor="start" style="white-space: pre;" direction="ltr">    *  `prodname|contains`:`Anydesk`</text></g><g stroke-linecap="round"><g transform="translate(894.1095019470845 3657.8192672918058) rotate(0 90.35074469594736 0.1976496567497179)"><path d="M0.17 -2 C30.18 -1.55, 150.51 1.71, 180.53 2.4" stroke="#000000" stroke-width="4.5" fill="none" stroke-dasharray="8 12"></path></g><g transform="translate(894.1095019470845 3657.8192672918058) rotate(0 90.35074469594736 0.1976496567497179)"><path d="M149.24 8.8 C158.39 5.38, 167.01 3.51, 178.61 1.36" stroke="#000000" stroke-width="4.5" fill="none"></path></g><g transform="translate(894.1095019470845 3657.8192672918058) rotate(0 90.35074469594736 0.1976496567497179)"><path d="M149.75 -11.72 C158.69 -8.63, 167.15 -3.99, 178.61 1.36" stroke="#000000" stroke-width="4.5" fill="none"></path></g></g><g stroke-linecap="round"><g transform="translate(540.7456175209644 3822.228429994052) rotate(0 1.2665918338462347 42.399860935450306)"><path d="M-2.3 -0.04 C-1.23 32.35, -2.71 58.88, 2.86 81.27 M0.09 -1 C2.14 24.35, 3.74 43.78, 4.83 85.8" stroke="#000000" stroke-width="4" fill="none"></path></g><g transform="translate(540.7456175209644 3822.228429994052) rotate(0 1.2665918338462347 42.399860935450306)"><path d="M-8.69 57.94 C-3.85 70.48, -2.66 77.03, 3.96 82.98 M-6.3 56.98 C-2.84 67.07, 0.77 71.36, 5.92 87.51" stroke="#000000" stroke-width="4" fill="none"></path></g><g transform="translate(540.7456175209644 3822.228429994052) rotate(0 1.2665918338462347 42.399860935450306)"><path d="M11.82 57.23 C9.37 69.66, 3.27 76.46, 3.96 82.98 M14.21 56.27 C12.16 66.9, 10.26 71.39, 5.92 87.51" stroke="#000000" stroke-width="4" fill="none"></path></g></g><g transform="translate(1164.2814801919626 3698.13491574219) rotate(0 229 17.5)"><text x="0" y="28" font-family="Cascadia, Segoe UI Emoji" font-size="28.82815167698544px" fill="#1864ab" text-anchor="start" style="white-space: pre;" direction="ltr">Source: Windows Application</text></g><g transform="translate(1234.3846709690524 3370.2753888606776) rotate(0 187 17.5)"><text x="0" y="28" font-family="Cascadia, Segoe UI Emoji" font-size="28.82815167698544px" fill="#1864ab" text-anchor="start" style="white-space: pre;" direction="ltr">Source: Windows Sysmon</text></g><g transform="translate(1343.0337724810283 2871.053556077095) rotate(0 187 17.5)"><text x="0" y="28" font-family="Cascadia, Segoe UI Emoji" font-size="28.82815167698544px" fill="#1864ab" text-anchor="start" style="white-space: pre;" direction="ltr">Source: Windows Sysmon</text></g><g transform="translate(1266.1618366674993 2434.801219060394) rotate(0 187 17.5)"><text x="0" y="28" font-family="Cascadia, Segoe UI Emoji" font-size="28.82815167698544px" fill="#1864ab" text-anchor="start" style="white-space: pre;" direction="ltr">Source: Windows Sysmon</text></g><g transform="translate(1213.5309487328313 1940.462814034457) rotate(0 187 17.5)"><text x="0" y="28" font-family="Cascadia, Segoe UI Emoji" font-size="28.82815167698544px" fill="#1864ab" text-anchor="start" style="white-space: pre;" direction="ltr">Source: Windows Sysmon</text></g><g transform="translate(1216.0690894905192 1423.9777631724294) rotate(0 187 17.5)"><text x="0" y="28" font-family="Cascadia, Segoe UI Emoji" font-size="28.82815167698544px" fill="#1864ab" text-anchor="start" style="white-space: pre;" direction="ltr">Source: Windows Sysmon</text></g><g transform="translate(1216.0691766835994 985.1446269542132) rotate(0 187 17.5)"><text x="0" y="28" font-family="Cascadia, Segoe UI Emoji" font-size="28.82815167698544px" fill="#1864ab" text-anchor="start" style="white-space: pre;" direction="ltr">Source: Windows Sysmon</text></g><g transform="translate(1237.6709476153987 750.5708841128801) rotate(0 187 17.5)"><text x="0" y="28" font-family="Cascadia, Segoe UI Emoji" font-size="28.82815167698544px" fill="#1864ab" text-anchor="start" style="white-space: pre;" direction="ltr">Source: Windows Sysmon</text></g><g transform="translate(1060.8366394866248 3872.0012032933655) rotate(0 769.5 21)"><text x="0" y="33" font-family="Helvetica, Segoe UI Emoji" font-size="36px" fill="#000000" text-anchor="start" style="white-space: pre;" direction="ltr">A new local administrator user was created on a server to facilitate persistence on the machine.  </text></g><g stroke-linecap="round"><g transform="translate(912.8800819793346 3916.180124746801) rotate(0 68.04663003927192 -0.3464795213049001)"><path d="M1.55 0.62 C24.05 0.08, 112.12 -0.9, 134.55 -1.31" stroke="#000000" stroke-width="4.5" fill="none" stroke-dasharray="8 12"></path></g><g transform="translate(912.8800819793346 3916.180124746801) rotate(0 68.04663003927192 -0.3464795213049001)"><path d="M107.39 8.99 C113.37 7.93, 120.54 4.1, 138.08 1.34" stroke="#000000" stroke-width="4.5" fill="none"></path></g><g transform="translate(912.8800819793346 3916.180124746801) rotate(0 68.04663003927192 -0.3464795213049001)"><path d="M107.09 -11.53 C113.44 -6.79, 120.69 -4.82, 138.08 1.34" stroke="#000000" stroke-width="4.5" fill="none"></path></g></g><g transform="translate(1159.439486556771 4092.183379418503) rotate(0 583.5 52.5)"><text x="0" y="28" font-family="Cascadia, Segoe UI Emoji" font-size="28.82815167698544px" fill="#c92a2a" text-anchor="start" style="white-space: pre;" direction="ltr">Detection:</text><text x="0" y="63" font-family="Cascadia, Segoe UI Emoji" font-size="28.82815167698544px" fill="#c92a2a" text-anchor="start" style="white-space: pre;" direction="ltr">    * `sproc`:`net`</text><text x="0" y="98" font-family="Cascadia, Segoe UI Emoji" font-size="28.82815167698544px" fill="#c92a2a" text-anchor="start" style="white-space: pre;" direction="ltr">    * `command`: `sql_admin`,`sql_admin`,`Administrators`,`sql_admin`</text></g><g transform="translate(1147.406876045869 3982.162495389519) rotate(0 427.5 51)"><text x="0" y="27" font-family="Cascadia, Segoe UI Emoji" font-size="28px" fill="#c92a2a" text-anchor="start" style="white-space: pre;" direction="ltr">Events:</text><text x="0" y="61" font-family="Cascadia, Segoe UI Emoji" font-size="28px" fill="#c92a2a" text-anchor="start" style="white-space: pre;" direction="ltr">    * `net user sql_admin sql_admin /add`</text><text x="0" y="95" font-family="Cascadia, Segoe UI Emoji" font-size="28px" fill="#c92a2a" text-anchor="start" style="white-space: pre;" direction="ltr">    * `net localgroup Administrators sql_admin /ADD`</text></g><g stroke-linecap="round"><g transform="translate(573.1329003519213 4094.9071205112214) rotate(0 0.19395023493427743 41.44964655516492)"><path d="M-3 -3.4 C-3 24.52, 2.11 43.22, 0.6 83.94 M0.56 -1.67 C1.93 18.93, 2.48 42.04, 3.39 86.3" stroke="#000000" stroke-width="4" fill="none"></path></g><g transform="translate(573.1329003519213 4094.9071205112214) rotate(0 0.19395023493427743 41.44964655516492)"><path d="M-10.48 54.94 C-8.72 68.13, -1.74 72.09, 0.72 82.31 M-6.92 56.67 C-4.24 63.42, -1.91 72.53, 3.5 84.67" stroke="#000000" stroke-width="4" fill="none"></path></g><g transform="translate(573.1329003519213 4094.9071205112214) rotate(0 0.19395023493427743 41.44964655516492)"><path d="M10.04 54.49 C6.76 67.76, 8.69 71.83, 0.72 82.31 M13.6 56.23 C11.49 62.67, 9.03 71.88, 3.5 84.67" stroke="#000000" stroke-width="4" fill="none"></path></g></g><g transform="translate(1049.5397320892298 4246.522721790819) rotate(0 974 42)"><text x="0" y="33" font-family="Helvetica, Segoe UI Emoji" font-size="36px" fill="#000000" text-anchor="start" style="white-space: pre;" direction="ltr">AdFind.exe was renamed to af.exe and was used by threat actors in order to enumerate AD users, computers, OU, trusts, </text><text x="0" y="75" font-family="Helvetica, Segoe UI Emoji" font-size="36px" fill="#000000" text-anchor="start" style="white-space: pre;" direction="ltr">subnets and groups.</text></g><g stroke-linecap="round"><g transform="translate(898.4077899514682 4258.364708650774) rotate(0 68.82541702778542 0.12665742218496234)"><path d="M-0.64 2.61 C22.16 2.09, 115.49 -1.74, 138.29 -2.35" stroke="#000000" stroke-width="4.5" fill="none" stroke-dasharray="8 12"></path></g><g transform="translate(898.4077899514682 4258.364708650774) rotate(0 68.82541702778542 0.12665742218496234)"><path d="M114.2 11.29 C116.99 4.42, 128.65 1.33, 140.63 -4.39" stroke="#000000" stroke-width="4.5" fill="none"></path></g><g transform="translate(898.4077899514682 4258.364708650774) rotate(0 68.82541702778542 0.12665742218496234)"><path d="M113.49 -9.22 C116.64 -8.85, 128.54 -4.71, 140.63 -4.39" stroke="#000000" stroke-width="4.5" fill="none"></path></g></g><g transform="translate(1133.1805521348872 4499.21671955939) rotate(0 583.4999999999999 52.5)"><text x="0" y="28" font-family="Cascadia, Segoe UI Emoji" font-size="28.82815167698544px" fill="#c92a2a" text-anchor="start" style="white-space: pre;" direction="ltr">Detection:</text><text x="0" y="63" font-family="Cascadia, Segoe UI Emoji" font-size="28.82815167698544px" fill="#c92a2a" text-anchor="start" style="white-space: pre;" direction="ltr">    * `sproc`:`net`</text><text x="0" y="98" font-family="Cascadia, Segoe UI Emoji" font-size="28.82815167698544px" fill="#c92a2a" text-anchor="start" style="white-space: pre;" direction="ltr">    * `command`: `sql_admin`,`sql_admin`,`Administrators`,`sql_admin`</text></g><g transform="translate(1134.984063316275 4390.999346711795) rotate(0 427.4999999999999 51)"><text x="0" y="27" font-family="Cascadia, Segoe UI Emoji" font-size="28px" fill="#c92a2a" text-anchor="start" style="white-space: pre;" direction="ltr">Events:</text><text x="0" y="61" font-family="Cascadia, Segoe UI Emoji" font-size="28px" fill="#c92a2a" text-anchor="start" style="white-space: pre;" direction="ltr">    * `net user sql_admin sql_admin /add`</text><text x="0" y="95" font-family="Cascadia, Segoe UI Emoji" font-size="28px" fill="#c92a2a" text-anchor="start" style="white-space: pre;" direction="ltr">    * `net localgroup Administrators sql_admin /ADD`</text></g><g transform="translate(1036.5217361663986 4619.979651509019) rotate(0 693 62.5)"><text x="0" y="32.666666666666664" font-family="Helvetica, Segoe UI Emoji" font-size="36px" fill="#000000" text-anchor="start" style="white-space: pre;" direction="ltr">The threat actor accessed multiple documents and folders from a remote file server. </text><text x="0" y="74.33333333333333" font-family="Helvetica, Segoe UI Emoji" font-size="36px" fill="#000000" text-anchor="start" style="white-space: pre;" direction="ltr">The SMB share was accessed through a compromised server via an AnyDesk session.</text><text x="0" y="116" font-family="Helvetica, Segoe UI Emoji" font-size="36px" fill="#000000" text-anchor="start" style="white-space: pre;" direction="ltr">File server SMB share inspected</text></g><g transform="translate(1058.681799040134 5151.7581006902465) rotate(0 952.0000000000001 51)"><text x="0" y="27" font-family="Cascadia, Segoe UI Emoji" font-size="28px" fill="#c92a2a" text-anchor="start" style="white-space: pre;" direction="ltr">Events:</text><text x="0" y="61" font-family="Cascadia, Segoe UI Emoji" font-size="28px" fill="#c92a2a" text-anchor="start" style="white-space: pre;" direction="ltr">    * `C:\Windows\system32\cmd.exe /C copy \\&lt;REMOTE_WORKSTATION&gt;\C$\ProgramData\lsass.dmp c:\programdata\lsass.dmp`</text><text x="0" y="95" font-family="Cascadia, Segoe UI Emoji" font-size="28px" fill="#c92a2a" text-anchor="start" style="white-space: pre;" direction="ltr">    * `C:\Windows\system32\cmd.exe /C 7za.exe a -tzip -mx5 c:\programdata\lsass.zip c:\programdata\lsass.dmp`</text></g><g stroke-linecap="round"><g transform="translate(887.3366441658245 4644.445261864355) rotate(0 62.20888732250671 1.5862528856096105)"><path d="M2.64 0.7 C22.69 1.06, 102 2.28, 121.78 2.47" stroke="#000000" stroke-width="4.5" fill="none" stroke-dasharray="8 12"></path></g><g transform="translate(887.3366441658245 4644.445261864355) rotate(0 62.20888732250671 1.5862528856096105)"><path d="M94.46 13.19 C107.08 8.53, 116.16 4.22, 119.13 3.23" stroke="#000000" stroke-width="4.5" fill="none"></path></g><g transform="translate(887.3366441658245 4644.445261864355) rotate(0 62.20888732250671 1.5862528856096105)"><path d="M94.73 -7.33 C107.3 -4.74, 116.28 -1.81, 119.13 3.23" stroke="#000000" stroke-width="4.5" fill="none"></path></g></g><g stroke-linecap="round"><g transform="translate(568.9453326296016 4393.6069697122775) rotate(0 0.682434678501977 102.69886033078319)"><path d="M0.23 0.68 C2.25 40.23, 3 82.78, 2.07 203.24 M-1.1 0.03 C2.69 78.8, 2.28 153.19, -0.21 205.36" stroke="#000000" stroke-width="4" fill="none"></path></g><g transform="translate(568.9453326296016 4393.6069697122775) rotate(0 0.682434678501977 102.69886033078319)"><path d="M-9.34 177.63 C-6.35 180.47, -3.82 186.7, 0.91 203.9 M-10.82 176.91 C-4.09 189.22, -1.45 196.62, -1.63 206.28" stroke="#000000" stroke-width="4" fill="none"></path></g><g transform="translate(568.9453326296016 4393.6069697122775) rotate(0 0.682434678501977 102.69886033078319)"><path d="M11.17 178.26 C9.93 181.07, 8.22 187.17, 0.91 203.9 M9.69 177.54 C8.66 189.62, 3.53 196.78, -1.63 206.28" stroke="#000000" stroke-width="4" fill="none"></path></g></g><g transform="translate(1106.7578368683444 4742.693428547688) rotate(0 187 17.5)"><text x="0" y="28" font-family="Cascadia, Segoe UI Emoji" font-size="28.82815167698544px" fill="#1864ab" text-anchor="start" style="white-space: pre;" direction="ltr">Source: Windows Sysmon</text></g><g transform="translate(1115.2578368683442 4874.302114971488) rotate(0 330 52.5)"><text x="0" y="28" font-family="Cascadia, Segoe UI Emoji" font-size="28.82815167698544px" fill="#c92a2a" text-anchor="start" style="white-space: pre;" direction="ltr">Detection:</text><text x="0" y="63" font-family="Cascadia, Segoe UI Emoji" font-size="28.82815167698544px" fill="#c92a2a" text-anchor="start" style="white-space: pre;" direction="ltr">    * `pproc`:`C:\Windows\Explorer.EXE`</text><text x="0" y="98" font-family="Cascadia, Segoe UI Emoji" font-size="28.82815167698544px" fill="#c92a2a" text-anchor="start" style="white-space: pre;" direction="ltr">    * `command`: `\\`</text></g><g transform="translate(1114.561348049732 4776.0847421238905) rotate(0 862.5000000000001 34)"><text x="0" y="27" font-family="Cascadia, Segoe UI Emoji" font-size="28px" fill="#c92a2a" text-anchor="start" style="white-space: pre;" direction="ltr">Events:</text><text x="0" y="61" font-family="Cascadia, Segoe UI Emoji" font-size="28px" fill="#c92a2a" text-anchor="start" style="white-space: pre;" direction="ltr">    * `C:\Program Files\Windows NT\Accessories\WORDPAD.EXE\\111.111.111.111\Shares\Contracts\Sercet.docx`</text></g><g transform="translate(1045.7578368683444 5022.193428547688) rotate(0 459.5 41.5)"><text x="0" y="32.5" font-family="Helvetica, Segoe UI Emoji" font-size="36px" fill="#000000" text-anchor="start" style="white-space: pre;" direction="ltr">Veeam Console Opened</text><text x="0" y="74" font-family="Helvetica, Segoe UI Emoji" font-size="36px" fill="#000000" text-anchor="start" style="white-space: pre;" direction="ltr">iexplorer.exe used to check for OWA on Exchange Server</text></g><g transform="translate(1063.7578368683446 5282.693428547689) rotate(0 330 52.5)"><text x="0" y="28" font-family="Cascadia, Segoe UI Emoji" font-size="28.82815167698544px" fill="#c92a2a" text-anchor="start" style="white-space: pre;" direction="ltr">Detection:</text><text x="0" y="63" font-family="Cascadia, Segoe UI Emoji" font-size="28.82815167698544px" fill="#c92a2a" text-anchor="start" style="white-space: pre;" direction="ltr">    * `pproc`:`C:\Windows\Explorer.EXE`</text><text x="0" y="98" font-family="Cascadia, Segoe UI Emoji" font-size="28.82815167698544px" fill="#c92a2a" text-anchor="start" style="white-space: pre;" direction="ltr">    * `command`: `\\`</text></g><g stroke-linecap="round"><g transform="translate(555.723722535226 4797.921285459038) rotate(0 -0.29390760770718316 103.5086834404733)"><path d="M-2.75 3.24 C0.6 50.34, 2.38 98.68, -0.64 204.4 M1.47 0.77 C1.85 68.34, 3.19 136.58, 0.64 206.25" stroke="#000000" stroke-width="4" fill="none"></path></g><g transform="translate(555.723722535226 4797.921285459038) rotate(0 -0.29390760770718316 103.5086834404733)"><path d="M-12.08 181.47 C-7.3 186.16, -3.28 192.12, -1.27 206.09 M-7.35 178.7 C-5.04 186.88, -0.69 195.65, 0.16 208.16" stroke="#000000" stroke-width="4" fill="none"></path></g><g transform="translate(555.723722535226 4797.921285459038) rotate(0 -0.29390760770718316 103.5086834404733)"><path d="M8.44 181.92 C8.29 186.2, 7.39 192.06, -1.27 206.09 M13.16 179.15 C8.56 186.8, 5.99 195.42, 0.16 208.16" stroke="#000000" stroke-width="4" fill="none"></path></g></g><g stroke-linecap="round"><g transform="translate(546.9952155159863 5215.421285459038) rotate(0 1.2840939277918437 98.7726408349331)"><path d="M0.06 1.47 C4.03 41.13, 7.5 83, -0.96 198.49 M-1.36 -0.95 C2.34 64.56, 2.93 132.25, -1.69 195.67" stroke="#000000" stroke-width="4" fill="none"></path></g><g transform="translate(546.9952155159863 5215.421285459038) rotate(0 1.2840939277918437 98.7726408349331)"><path d="M-10.52 168.48 C-7.58 171.86, -2.22 177.44, -2.9 199.62 M-11.93 166.07 C-7.62 175.5, -4.11 187.24, -3.63 196.79" stroke="#000000" stroke-width="4" fill="none"></path></g><g transform="translate(546.9952155159863 5215.421285459038) rotate(0 1.2840939277918437 98.7726408349331)"><path d="M9.98 169.47 C8.42 172.61, 9.29 177.97, -2.9 199.62 M8.57 167.06 C5.95 176.44, 2.55 187.85, -3.63 196.79" stroke="#000000" stroke-width="4" fill="none"></path></g></g><g transform="translate(1019.2578368683444 5443.193428547688) rotate(0 261 21)"><text x="0" y="33" font-family="Helvetica, Segoe UI Emoji" font-size="36px" fill="#000000" text-anchor="start" style="white-space: pre;" direction="ltr">ICMP Discovery Script Executed</text></g><g transform="translate(1034.2578368683442 5504.193428547688) rotate(0 328.5 51)"><text x="0" y="27" font-family="Cascadia, Segoe UI Emoji" font-size="28px" fill="#c92a2a" text-anchor="start" style="white-space: pre;" direction="ltr">Events:</text><text x="0" y="61" font-family="Cascadia, Segoe UI Emoji" font-size="28px" fill="#c92a2a" text-anchor="start" style="white-space: pre;" direction="ltr">    * `cmd.exe /c "C:\ProgramData\1.bat`</text><text x="0" y="95" font-family="Cascadia, Segoe UI Emoji" font-size="28px" fill="#c92a2a" text-anchor="start" style="white-space: pre;" direction="ltr">    * `ping -n 1 Hostname`</text></g><g transform="translate(1031.2578368683442 5635.193428547689) rotate(0 262.5 52.5)"><text x="0" y="28" font-family="Cascadia, Segoe UI Emoji" font-size="28.82815167698544px" fill="#c92a2a" text-anchor="start" style="white-space: pre;" direction="ltr">Detection:</text><text x="0" y="63" font-family="Cascadia, Segoe UI Emoji" font-size="28.82815167698544px" fill="#c92a2a" text-anchor="start" style="white-space: pre;" direction="ltr">    * `command|contains`:`.bat`</text><text x="0" y="98" font-family="Cascadia, Segoe UI Emoji" font-size="28.82815167698544px" fill="#c92a2a" text-anchor="start" style="white-space: pre;" direction="ltr">    * `sproc`:`ping`</text></g><g transform="translate(1908.3769841269832 80) rotate(0 0.00005000000010113581 0.00005000000000165983)" stroke="none"><path fill="#000000" d="M 1.57,-1.57 Q 1.57,-1.57 1.77,-1.27 1.98,-0.98 2.09,-0.64 2.20,-0.29 2.19,0.05 2.18,0.41 2.05,0.75 1.93,1.09 1.70,1.37 1.48,1.65 1.18,1.84 0.87,2.04 0.52,2.12 0.18,2.21 -0.17,2.18 -0.53,2.15 -0.86,2.01 -1.19,1.87 -1.46,1.63 -1.73,1.39 -1.90,1.07 -2.08,0.76 -2.15,0.41 -2.21,0.05 -2.17,-0.29 -2.12,-0.65 -1.96,-0.97 -1.80,-1.29 -1.54,-1.54 -1.29,-1.80 -0.97,-1.96 -0.65,-2.12 -0.29,-2.17 0.06,-2.21 0.41,-2.15 0.76,-2.08 1.07,-1.90 1.39,-1.73 1.63,-1.46 1.87,-1.19 2.01,-0.86 2.15,-0.53 2.18,-0.17 2.21,0.18 2.12,0.52 2.03,0.87 1.84,1.18 1.65,1.48 1.37,1.70 1.09,1.93 0.75,2.05 0.41,2.18 0.05,2.19 -0.30,2.20 -0.64,2.09 -0.98,1.98 -1.27,1.77 -1.57,1.56 -1.57,1.57 -1.57,1.57 -1.73,1.35 -1.90,1.14 -2.01,0.90 -2.12,0.66 -2.16,0.39 -2.21,0.13 -2.20,-0.13 -2.18,-0.40 -2.10,-0.65 -2.02,-0.91 -1.88,-1.14 -1.74,-1.36 -1.55,-1.55 -1.36,-1.74 -1.14,-1.88 -0.91,-2.02 -0.65,-2.10 -0.40,-2.18 -0.13,-2.20 0.13,-2.21 0.39,-2.16 0.66,-2.12 0.90,-2.01 1.14,-1.90 1.35,-1.73 1.57,-1.57 1.57,-1.57 L 1.57,-1.57 Z"></path></g><g transform="translate(1908.3769841269832 80) rotate(0 0.00005000000010113581 0.00005000000000165983)" stroke="none"><path fill="#000000" d="M 1.57,-1.57 Q 1.57,-1.57 1.77,-1.27 1.98,-0.98 2.09,-0.64 2.20,-0.29 2.19,0.05 2.18,0.41 2.05,0.75 1.93,1.09 1.70,1.37 1.48,1.65 1.18,1.84 0.87,2.04 0.52,2.12 0.18,2.21 -0.17,2.18 -0.53,2.15 -0.86,2.01 -1.19,1.87 -1.46,1.63 -1.73,1.39 -1.90,1.07 -2.08,0.76 -2.15,0.41 -2.21,0.05 -2.17,-0.29 -2.12,-0.65 -1.96,-0.97 -1.80,-1.29 -1.54,-1.54 -1.29,-1.80 -0.97,-1.96 -0.65,-2.12 -0.29,-2.17 0.06,-2.21 0.41,-2.15 0.76,-2.08 1.07,-1.90 1.39,-1.73 1.63,-1.46 1.87,-1.19 2.01,-0.86 2.15,-0.53 2.18,-0.17 2.21,0.18 2.12,0.52 2.03,0.87 1.84,1.18 1.65,1.48 1.37,1.70 1.09,1.93 0.75,2.05 0.41,2.18 0.05,2.19 -0.30,2.20 -0.64,2.09 -0.98,1.98 -1.27,1.77 -1.57,1.56 -1.57,1.57 -1.57,1.57 -1.73,1.35 -1.90,1.14 -2.01,0.90 -2.12,0.66 -2.16,0.39 -2.21,0.13 -2.20,-0.13 -2.18,-0.40 -2.10,-0.65 -2.02,-0.91 -1.88,-1.14 -1.74,-1.36 -1.55,-1.55 -1.36,-1.74 -1.14,-1.88 -0.91,-2.02 -0.65,-2.10 -0.40,-2.18 -0.13,-2.20 0.13,-2.21 0.39,-2.16 0.66,-2.12 0.90,-2.01 1.14,-1.90 1.35,-1.73 1.57,-1.57 1.57,-1.57 L 1.57,-1.57 Z"></path></g><g transform="translate(1893.3769841269832 10) rotate(0 0.00005000000010113581 0.00004999999998744897)" stroke="none"><path fill="#000000" d="M 1.57,-1.57 Q 1.57,-1.57 1.77,-1.27 1.98,-0.98 2.09,-0.64 2.20,-0.29 2.19,0.05 2.18,0.41 2.05,0.75 1.93,1.09 1.70,1.37 1.48,1.65 1.18,1.84 0.87,2.04 0.52,2.12 0.18,2.21 -0.17,2.18 -0.53,2.15 -0.86,2.01 -1.19,1.87 -1.46,1.63 -1.73,1.39 -1.90,1.07 -2.08,0.76 -2.15,0.41 -2.21,0.05 -2.17,-0.29 -2.12,-0.65 -1.96,-0.97 -1.80,-1.29 -1.54,-1.54 -1.29,-1.80 -0.97,-1.96 -0.65,-2.12 -0.29,-2.17 0.06,-2.21 0.41,-2.15 0.76,-2.08 1.07,-1.90 1.39,-1.73 1.63,-1.46 1.87,-1.19 2.01,-0.86 2.15,-0.53 2.18,-0.17 2.21,0.18 2.12,0.52 2.03,0.87 1.84,1.18 1.65,1.48 1.37,1.70 1.09,1.93 0.75,2.05 0.41,2.18 0.05,2.19 -0.30,2.20 -0.64,2.09 -0.98,1.98 -1.27,1.77 -1.57,1.56 -1.57,1.57 -1.57,1.57 -1.73,1.35 -1.90,1.14 -2.01,0.90 -2.12,0.66 -2.16,0.39 -2.21,0.13 -2.20,-0.13 -2.18,-0.40 -2.10,-0.65 -2.02,-0.91 -1.88,-1.14 -1.74,-1.36 -1.55,-1.55 -1.36,-1.74 -1.14,-1.88 -0.91,-2.02 -0.65,-2.10 -0.40,-2.18 -0.13,-2.20 0.13,-2.21 0.39,-2.16 0.66,-2.12 0.90,-2.01 1.14,-1.90 1.35,-1.73 1.57,-1.57 1.57,-1.57 L 1.57,-1.57 Z"></path></g><g transform="translate(1843.3769841269832 32.5) rotate(0 0.00005000000010113581 0.00005000000000165983)" stroke="none"><path fill="#000000" d="M 1.57,-1.57 Q 1.57,-1.57 1.77,-1.27 1.98,-0.98 2.09,-0.64 2.20,-0.29 2.19,0.05 2.18,0.41 2.05,0.75 1.93,1.09 1.70,1.37 1.48,1.65 1.18,1.84 0.87,2.04 0.52,2.12 0.18,2.21 -0.17,2.18 -0.53,2.15 -0.86,2.01 -1.19,1.87 -1.46,1.63 -1.73,1.39 -1.90,1.07 -2.08,0.76 -2.15,0.41 -2.21,0.05 -2.17,-0.29 -2.12,-0.65 -1.96,-0.97 -1.80,-1.29 -1.54,-1.54 -1.29,-1.80 -0.97,-1.96 -0.65,-2.12 -0.29,-2.17 0.06,-2.21 0.41,-2.15 0.76,-2.08 1.07,-1.90 1.39,-1.73 1.63,-1.46 1.87,-1.19 2.01,-0.86 2.15,-0.53 2.18,-0.17 2.21,0.18 2.12,0.52 2.03,0.87 1.84,1.18 1.65,1.48 1.37,1.70 1.09,1.93 0.75,2.05 0.41,2.18 0.05,2.19 -0.30,2.20 -0.64,2.09 -0.98,1.98 -1.27,1.77 -1.57,1.56 -1.57,1.57 -1.57,1.57 -1.73,1.35 -1.90,1.14 -2.01,0.90 -2.12,0.66 -2.16,0.39 -2.21,0.13 -2.20,-0.13 -2.18,-0.40 -2.10,-0.65 -2.02,-0.91 -1.88,-1.14 -1.74,-1.36 -1.55,-1.55 -1.36,-1.74 -1.14,-1.88 -0.91,-2.02 -0.65,-2.10 -0.40,-2.18 -0.13,-2.20 0.13,-2.21 0.39,-2.16 0.66,-2.12 0.90,-2.01 1.14,-1.90 1.35,-1.73 1.57,-1.57 1.57,-1.57 L 1.57,-1.57 Z"></path></g><g transform="translate(1843.3769841269832 32.5) rotate(0 0.00005000000010113581 0.00005000000000165983)" stroke="none"><path fill="#000000" d="M 1.57,-1.57 Q 1.57,-1.57 1.77,-1.27 1.98,-0.98 2.09,-0.64 2.20,-0.29 2.19,0.05 2.18,0.41 2.05,0.75 1.93,1.09 1.70,1.37 1.48,1.65 1.18,1.84 0.87,2.04 0.52,2.12 0.18,2.21 -0.17,2.18 -0.53,2.15 -0.86,2.01 -1.19,1.87 -1.46,1.63 -1.73,1.39 -1.90,1.07 -2.08,0.76 -2.15,0.41 -2.21,0.05 -2.17,-0.29 -2.12,-0.65 -1.96,-0.97 -1.80,-1.29 -1.54,-1.54 -1.29,-1.80 -0.97,-1.96 -0.65,-2.12 -0.29,-2.17 0.06,-2.21 0.41,-2.15 0.76,-2.08 1.07,-1.90 1.39,-1.73 1.63,-1.46 1.87,-1.19 2.01,-0.86 2.15,-0.53 2.18,-0.17 2.21,0.18 2.12,0.52 2.03,0.87 1.84,1.18 1.65,1.48 1.37,1.70 1.09,1.93 0.75,2.05 0.41,2.18 0.05,2.19 -0.30,2.20 -0.64,2.09 -0.98,1.98 -1.27,1.77 -1.57,1.56 -1.57,1.57 -1.57,1.57 -1.73,1.35 -1.90,1.14 -2.01,0.90 -2.12,0.66 -2.16,0.39 -2.21,0.13 -2.20,-0.13 -2.18,-0.40 -2.10,-0.65 -2.02,-0.91 -1.88,-1.14 -1.74,-1.36 -1.55,-1.55 -1.36,-1.74 -1.14,-1.88 -0.91,-2.02 -0.65,-2.10 -0.40,-2.18 -0.13,-2.20 0.13,-2.21 0.39,-2.16 0.66,-2.12 0.90,-2.01 1.14,-1.90 1.35,-1.73 1.57,-1.57 1.57,-1.57 L 1.57,-1.57 Z"></path></g><g transform="translate(1685.8769841269832 92.5) rotate(0 0.00004999999998744897 0.00005000000000165983)" stroke="none"><path fill="#000000" d="M 1.57,-1.57 Q 1.57,-1.57 1.77,-1.27 1.98,-0.98 2.09,-0.64 2.20,-0.29 2.19,0.05 2.18,0.41 2.05,0.75 1.93,1.09 1.70,1.37 1.48,1.65 1.18,1.84 0.87,2.04 0.52,2.12 0.18,2.21 -0.17,2.18 -0.53,2.15 -0.86,2.01 -1.19,1.87 -1.46,1.63 -1.73,1.39 -1.90,1.07 -2.08,0.76 -2.15,0.41 -2.21,0.05 -2.17,-0.29 -2.12,-0.65 -1.96,-0.97 -1.80,-1.29 -1.54,-1.54 -1.29,-1.80 -0.97,-1.96 -0.65,-2.12 -0.29,-2.17 0.06,-2.21 0.41,-2.15 0.76,-2.08 1.07,-1.90 1.39,-1.73 1.63,-1.46 1.87,-1.19 2.01,-0.86 2.15,-0.53 2.18,-0.17 2.21,0.18 2.12,0.52 2.03,0.87 1.84,1.18 1.65,1.48 1.37,1.70 1.09,1.93 0.75,2.05 0.41,2.18 0.05,2.19 -0.30,2.20 -0.64,2.09 -0.98,1.98 -1.27,1.77 -1.57,1.56 -1.57,1.57 -1.57,1.57 -1.73,1.35 -1.90,1.14 -2.01,0.90 -2.12,0.66 -2.16,0.39 -2.21,0.13 -2.20,-0.13 -2.18,-0.40 -2.10,-0.65 -2.02,-0.91 -1.88,-1.14 -1.74,-1.36 -1.55,-1.55 -1.36,-1.74 -1.14,-1.88 -0.91,-2.02 -0.65,-2.10 -0.40,-2.18 -0.13,-2.20 0.13,-2.21 0.39,-2.16 0.66,-2.12 0.90,-2.01 1.14,-1.90 1.35,-1.73 1.57,-1.57 1.57,-1.57 L 1.57,-1.57 Z"></path></g><g transform="translate(1057.2103174603176 5113.3333333333285) rotate(0 187 17.5)"><text x="0" y="28" font-family="Cascadia, Segoe UI Emoji" font-size="28.82815167698544px" fill="#1864ab" text-anchor="start" style="white-space: pre;" direction="ltr">Source: Windows Sysmon</text></g><g transform="translate(1030.5436507936506 5479.999999999996) rotate(0 187 17.5)"><text x="0" y="28" font-family="Cascadia, Segoe UI Emoji" font-size="28.82815167698544px" fill="#1864ab" text-anchor="start" style="white-space: pre;" direction="ltr">Source: Windows Sysmon</text></g><g transform="translate(1133.876984126984 4346.666666666663) rotate(0 187 17.5)"><text x="0" y="28" font-family="Cascadia, Segoe UI Emoji" font-size="28.82815167698544px" fill="#1864ab" text-anchor="start" style="white-space: pre;" direction="ltr">Source: Windows Sysmon</text></g><g transform="translate(1147.2103174603171 3929.9999999999964) rotate(0 187 17.5)"><text x="0" y="28" font-family="Cascadia, Segoe UI Emoji" font-size="28.82815167698544px" fill="#1864ab" text-anchor="start" style="white-space: pre;" direction="ltr">Source: Windows Sysmon</text></g><g stroke-linecap="round"><g transform="translate(1076.6445226579392 2429.00695472647) rotate(0 87.8080802305825 36.7891870236333)"><path d="M-0.16 2.52 C1 11.95, -22.78 45.73, 7.83 57.15 C38.43 68.58, 154.15 69.34, 183.49 71.06" stroke="#c92a2a" stroke-width="4.5" fill="none" stroke-dasharray="8 12"></path></g><g transform="translate(1076.6445226579392 2429.00695472647) rotate(0 87.8080802305825 36.7891870236333)"><path d="M158.55 81.16 C167.61 74.94, 176.92 72.39, 181.49 71.7" stroke="#c92a2a" stroke-width="4.5" fill="none"></path></g><g transform="translate(1076.6445226579392 2429.00695472647) rotate(0 87.8080802305825 36.7891870236333)"><path d="M159.28 60.65 C168.18 61.23, 177.25 65.48, 181.49 71.7" stroke="#c92a2a" stroke-width="4.5" fill="none"></path></g></g><g stroke-linecap="round"><g transform="translate(1169.9778559912727 2839.006954726471) rotate(0 67.25535925260988 30.859458456044422)"><path d="M-0.78 -1.84 C0.19 7.42, -14.78 42.29, 8.54 53.19 C31.86 64.09, 116.54 61.96, 139.14 63.56" stroke="#c92a2a" stroke-width="4.5" fill="none" stroke-dasharray="8 12"></path></g><g transform="translate(1169.9778559912727 2839.006954726471) rotate(0 67.25535925260988 30.859458456044422)"><path d="M108.06 74.94 C119.68 65.66, 133.25 68.97, 137.83 66.53" stroke="#c92a2a" stroke-width="4.5" fill="none"></path></g><g transform="translate(1169.9778559912727 2839.006954726471) rotate(0 67.25535925260988 30.859458456044422)"><path d="M108.6 54.43 C119.66 53.27, 133.01 64.7, 137.83 66.53" stroke="#c92a2a" stroke-width="4.5" fill="none"></path></g></g><g stroke-linecap="round"><g transform="translate(1023.3111893246062 3345.673621393137) rotate(0 62.505005647420376 34.45391477357089)"><path d="M2.01 2.67 C3.1 11.01, -13.56 41.98, 7.48 52.57 C28.52 63.16, 108.35 63.38, 128.23 66.24" stroke="#c92a2a" stroke-width="4.5" fill="none" stroke-dasharray="8 12"></path></g><g transform="translate(1023.3111893246062 3345.673621393137) rotate(0 62.505005647420376 34.45391477357089)"><path d="M103.19 74.81 C105.55 75.1, 116.55 70.28, 131.21 67.84" stroke="#c92a2a" stroke-width="4.5" fill="none"></path></g><g transform="translate(1023.3111893246062 3345.673621393137) rotate(0 62.505005647420376 34.45391477357089)"><path d="M104.66 54.34 C106.9 61.49, 117.41 63.5, 131.21 67.84" stroke="#c92a2a" stroke-width="4.5" fill="none"></path></g></g><g stroke-linecap="round"><g transform="translate(1008.0916309698302 3700.3649846219923) rotate(0 61.542214006595145 34.04347862313921)"><path d="M-1.59 -0.7 C-0.37 8.8, -14.97 43.36, 6.69 54.94 C28.35 66.52, 108.94 66.3, 128.36 68.78" stroke="#c92a2a" stroke-width="4.5" fill="none" stroke-dasharray="8 12"></path></g><g transform="translate(1008.0916309698302 3700.3649846219923) rotate(0 61.542214006595145 34.04347862313921)"><path d="M98.6 76.51 C107.76 79.25, 117.33 69.57, 131.59 70.48" stroke="#c92a2a" stroke-width="4.5" fill="none"></path></g><g transform="translate(1008.0916309698302 3700.3649846219923) rotate(0 61.542214006595145 34.04347862313921)"><path d="M99.86 56.03 C108.37 64.42, 117.6 60.42, 131.59 70.48" stroke="#c92a2a" stroke-width="4.5" fill="none"></path></g></g><g stroke-linecap="round"><g transform="translate(1001.4249643031633 3953.6983179553254) rotate(0 61.5085831363441 33.56103519211956)"><path d="M-1.8 -2.1 C-0.77 6.71, -14.27 43.29, 7.37 55.18 C29.01 67.06, 108.05 66.71, 128.04 69.22" stroke="#c92a2a" stroke-width="4.5" fill="none" stroke-dasharray="8 12"></path></g><g transform="translate(1001.4249643031633 3953.6983179553254) rotate(0 61.5085831363441 33.56103519211956)"><path d="M96.27 77.92 C109.4 78.72, 121.16 74.76, 131.79 71.29" stroke="#c92a2a" stroke-width="4.5" fill="none"></path></g><g transform="translate(1001.4249643031633 3953.6983179553254) rotate(0 61.5085831363441 33.56103519211956)"><path d="M97.53 57.44 C110.57 65.24, 121.9 68.29, 131.79 71.29" stroke="#c92a2a" stroke-width="4.5" fill="none"></path></g></g><g stroke-linecap="round"><g transform="translate(981.4249643031633 4300.364984621991) rotate(0 61.42463273742135 33.77176379274056)"><path d="M0.41 -1.24 C1.66 7.76, -12.07 43.62, 8.82 55.29 C29.7 66.96, 106.32 67.1, 125.72 68.78" stroke="#c92a2a" stroke-width="4.5" fill="none" stroke-dasharray="8 12"></path></g><g transform="translate(981.4249643031633 4300.364984621991) rotate(0 61.42463273742135 33.77176379274056)"><path d="M95.3 79.92 C107.51 74.71, 118.56 70.91, 122.52 69.21" stroke="#c92a2a" stroke-width="4.5" fill="none"></path></g><g transform="translate(981.4249643031633 4300.364984621991) rotate(0 61.42463273742135 33.77176379274056)"><path d="M96.3 59.43 C108.35 61.33, 119.06 64.65, 122.52 69.21" stroke="#c92a2a" stroke-width="4.5" fill="none"></path></g></g><g stroke-linecap="round"><g transform="translate(948.0916309698302 4717.031651288657) rotate(0 60.87705982597333 32.38859080086877)"><path d="M-2.16 -1.49 C-1.35 8.01, -14.56 43.97, 7 55.26 C28.56 66.56, 107.56 63.99, 127.18 66.27" stroke="#c92a2a" stroke-width="4.5" fill="none" stroke-dasharray="8 12"></path></g><g transform="translate(948.0916309698302 4717.031651288657) rotate(0 60.87705982597333 32.38859080086877)"><path d="M96.47 75.03 C110.01 74.69, 118.33 67.79, 129.06 68.98" stroke="#c92a2a" stroke-width="4.5" fill="none"></path></g><g transform="translate(948.0916309698302 4717.031651288657) rotate(0 60.87705982597333 32.38859080086877)"><path d="M97.31 54.53 C110.28 61.89, 118.28 62.71, 129.06 68.98" stroke="#c92a2a" stroke-width="4.5" fill="none"></path></g></g><g stroke-linecap="round"><g transform="translate(924.7582976364968 5120.364984621992) rotate(0 62.057100258978494 34.47106050561615)"><path d="M-1.07 0.46 C0.27 9.03, -11.47 41.56, 9.91 52.89 C31.29 64.23, 107.59 65.6, 127.21 68.48" stroke="#c92a2a" stroke-width="4.5" fill="none" stroke-dasharray="8 12"></path></g><g transform="translate(924.7582976364968 5120.364984621992) rotate(0 62.057100258978494 34.47106050561615)"><path d="M98.93 80.18 C105.96 76.04, 120.7 73.74, 130.86 67.74" stroke="#c92a2a" stroke-width="4.5" fill="none"></path></g><g transform="translate(924.7582976364968 5120.364984621992) rotate(0 62.057100258978494 34.47106050561615)"><path d="M100.64 59.73 C107.26 63.09, 121.37 68.3, 130.86 67.74" stroke="#c92a2a" stroke-width="4.5" fill="none"></path></g></g><g stroke-linecap="round"><g transform="translate(903.6079936861815 5050.876123873713) rotate(0 60.738974588251494 -0.5660056588553743)"><path d="M2.29 0.11 C22.29 0.31, 99.07 -1.36, 119.19 -1.26" stroke="#000000" stroke-width="4.5" fill="none" stroke-dasharray="8 12"></path></g><g transform="translate(903.6079936861815 5050.876123873713) rotate(0 60.738974588251494 -0.5660056588553743)"><path d="M91.26 6.39 C97.2 8.49, 107.66 2.27, 122.36 -4.61" stroke="#000000" stroke-width="4.5" fill="none"></path></g><g transform="translate(903.6079936861815 5050.876123873713) rotate(0 60.738974588251494 -0.5660056588553743)"><path d="M91.06 -14.13 C96.7 -6.48, 107.22 -7.15, 122.36 -4.61" stroke="#000000" stroke-width="4.5" fill="none"></path></g></g><g stroke-linecap="round"><g transform="translate(896.941327019515 5460.87612387371) rotate(0 60.70755983803315 -2.277912382552131)"><path d="M0.04 -2.18 C20.15 -2.54, 100.78 -2.31, 121.38 -2.2" stroke="#000000" stroke-width="4.5" fill="none" stroke-dasharray="8 12"></path></g><g transform="translate(896.941327019515 5460.87612387371) rotate(0 60.70755983803315 -2.277912382552131)"><path d="M90.03 8.2 C99.31 8.11, 109.42 -2.29, 124.16 -4.31" stroke="#000000" stroke-width="4.5" fill="none"></path></g><g transform="translate(896.941327019515 5460.87612387371) rotate(0 60.70755983803315 -2.277912382552131)"><path d="M90.11 -12.32 C99.36 -5.73, 109.44 -9.44, 124.16 -4.31" stroke="#000000" stroke-width="4.5" fill="none"></path></g></g><g stroke-linecap="round"><g transform="translate(894.7582976364972 5473.698317955324) rotate(0 60.80350678384639 34.04814680825393)"><path d="M-2.75 -1.17 C-1.18 7.9, -12.86 44.96, 8.62 56.7 C30.1 68.44, 106.91 67.35, 126.14 69.27" stroke="#c92a2a" stroke-width="4.5" fill="none" stroke-dasharray="8 12"></path></g><g transform="translate(894.7582976364972 5473.698317955324) rotate(0 60.80350678384639 34.04814680825393)"><path d="M95.84 80.24 C107.76 77.18, 115.35 71.65, 126.98 72.68" stroke="#c92a2a" stroke-width="4.5" fill="none"></path></g><g transform="translate(894.7582976364972 5473.698317955324) rotate(0 60.80350678384639 34.04814680825393)"><path d="M96.76 59.74 C108.76 62.25, 116.1 62.31, 126.98 72.68" stroke="#c92a2a" stroke-width="4.5" fill="none"></path></g></g></svg>